<?xml version="1.0" encoding="UTF-8" standalone="no"?>
<!DOCTYPE svg PUBLIC "-//W3C//DTD SVG 1.1//EN"
 "http://www.w3.org/Graphics/SVG/1.1/DTD/svg11.dtd">
<!-- Generated by graphviz version 15.0.0 (20260523.1842)
 -->
<!-- Title: graph8_3x3_d3 Pages: 1 -->
<svg width="382pt" height="382pt"
 viewBox="0.00 0.00 382.00 382.00" xmlns="http://www.w3.org/2000/svg" xmlns:xlink="http://www.w3.org/1999/xlink">
<g id="graph0" class="graph" transform="scale(1 1) rotate(0) translate(4 378.17)">
<title>graph8_3x3_d3</title>
<polygon fill="white" stroke="none" points="-4,4 -4,-378.17 378.17,-378.17 378.17,4 -4,4"/>
<!-- 8 -->
<g id="node1" class="node">
<title>8</title>
<polygon fill="#e51616" stroke="black" points="31.18,-374.17 0,-374.17 0,-342.09 31.18,-342.09 31.18,-374.17"/>
<text xml:space="preserve" text-anchor="middle" x="15.59" y="-353.08" font-family="Times New Roman,serif" font-size="14.00">8</text>
</g>
<!-- 6569 -->
<g id="node2" class="node">
<title>6569</title>
<polygon fill="#16e5e5" stroke="black" points="62.36,-374.17 31.18,-374.17 31.18,-342.09 62.36,-342.09 62.36,-374.17"/>
<text xml:space="preserve" text-anchor="middle" x="46.77" y="-353.08" font-family="Times New Roman,serif" font-size="14.00">6569</text>
</g>
<!-- 2195 -->
<g id="node3" class="node">
<title>2195</title>
<polygon fill="#16e5e5" stroke="black" points="93.54,-374.17 62.36,-374.17 62.36,-342.09 93.54,-342.09 93.54,-374.17"/>
<text xml:space="preserve" text-anchor="middle" x="77.95" y="-353.08" font-family="Times New Roman,serif" font-size="14.00">2195</text>
</g>
<!-- 737 -->
<g id="node4" class="node">
<title>737</title>
<polygon fill="#16e5e5" stroke="black" points="124.72,-374.17 93.54,-374.17 93.54,-342.09 124.72,-342.09 124.72,-374.17"/>
<text xml:space="preserve" text-anchor="middle" x="109.13" y="-353.08" font-family="Times New Roman,serif" font-size="14.00">737</text>
</g>
<!-- 251 -->
<g id="node5" class="node">
<title>251</title>
<polygon fill="#16e5e5" stroke="black" points="155.9,-374.17 124.72,-374.17 124.72,-342.09 155.9,-342.09 155.9,-374.17"/>
<text xml:space="preserve" text-anchor="middle" x="140.31" y="-353.08" font-family="Times New Roman,serif" font-size="14.00">251</text>
</g>
<!-- 89 -->
<g id="node6" class="node">
<title>89</title>
<polygon fill="#16e5e5" stroke="black" points="187.08,-374.17 155.9,-374.17 155.9,-342.09 187.08,-342.09 187.08,-374.17"/>
<text xml:space="preserve" text-anchor="middle" x="171.49" y="-353.08" font-family="Times New Roman,serif" font-size="14.00">89</text>
</g>
<!-- 35 -->
<g id="node7" class="node">
<title>35</title>
<polygon fill="#16e5e5" stroke="black" points="218.26,-374.17 187.08,-374.17 187.08,-342.09 218.26,-342.09 218.26,-374.17"/>
<text xml:space="preserve" text-anchor="middle" x="202.67" y="-353.08" font-family="Times New Roman,serif" font-size="14.00">35</text>
</g>
<!-- 17 -->
<g id="node8" class="node">
<title>17</title>
<polygon fill="#16e5e5" stroke="black" points="249.44,-374.17 218.26,-374.17 218.26,-342.09 249.44,-342.09 249.44,-374.17"/>
<text xml:space="preserve" text-anchor="middle" x="233.85" y="-353.08" font-family="Times New Roman,serif" font-size="14.00">17</text>
</g>
<!-- 10943 -->
<g id="node9" class="node">
<title>10943</title>
<polygon fill="#e51616" stroke="black" points="280.62,-374.17 249.44,-374.17 249.44,-342.09 280.62,-342.09 280.62,-374.17"/>
<text xml:space="preserve" text-anchor="middle" x="265.03" y="-353.08" font-family="Times New Roman,serif" font-size="14.00">10943</text>
</g>
<!-- 8027 -->
<g id="node10" class="node">
<title>8027</title>
<polygon fill="#e51616" stroke="black" points="311.8,-374.17 280.62,-374.17 280.62,-342.09 311.8,-342.09 311.8,-374.17"/>
<text xml:space="preserve" text-anchor="middle" x="296.21" y="-353.08" font-family="Times New Roman,serif" font-size="14.00">8027</text>
</g>
<!-- 7055 -->
<g id="node11" class="node">
<title>7055</title>
<polygon fill="#e51616" stroke="black" points="342.99,-374.17 311.8,-374.17 311.8,-342.09 342.99,-342.09 342.99,-374.17"/>
<text xml:space="preserve" text-anchor="middle" x="327.4" y="-353.08" font-family="Times New Roman,serif" font-size="14.00">7055</text>
</g>
<!-- 6731 -->
<g id="node12" class="node">
<title>6731</title>
<polygon fill="#e51616" stroke="black" points="374.17,-374.17 342.99,-374.17 342.99,-342.09 374.17,-342.09 374.17,-374.17"/>
<text xml:space="preserve" text-anchor="middle" x="358.58" y="-353.08" font-family="Times New Roman,serif" font-size="14.00">6731</text>
</g>
<!-- 6623 -->
<g id="node13" class="node">
<title>6623</title>
<polygon fill="#e51616" stroke="black" points="32.15,-342.09 0,-342.09 0,-310.99 32.15,-310.99 32.15,-342.09"/>
<text xml:space="preserve" text-anchor="middle" x="16.08" y="-321.49" font-family="Times New Roman,serif" font-size="14.00">6623</text>
</g>
<!-- 6587 -->
<g id="node14" class="node">
<title>6587</title>
<polygon fill="#e51616" stroke="black" points="32.15,-310.99 0,-310.99 0,-279.9 32.15,-279.9 32.15,-310.99"/>
<text xml:space="preserve" text-anchor="middle" x="16.08" y="-290.4" font-family="Times New Roman,serif" font-size="14.00">6587</text>
</g>
<!-- 15317 -->
<g id="node15" class="node">
<title>15317</title>
<polygon fill="#e51616" stroke="black" points="32.15,-279.9 0,-279.9 0,-248.8 32.15,-248.8 32.15,-279.9"/>
<text xml:space="preserve" text-anchor="middle" x="16.08" y="-259.3" font-family="Times New Roman,serif" font-size="14.00">15317</text>
</g>
<!-- 3653 -->
<g id="node16" class="node">
<title>3653</title>
<polygon fill="#e51616" stroke="black" points="32.15,-248.8 0,-248.8 0,-217.7 32.15,-217.7 32.15,-248.8"/>
<text xml:space="preserve" text-anchor="middle" x="16.08" y="-228.2" font-family="Times New Roman,serif" font-size="14.00">3653</text>
</g>
<!-- 2681 -->
<g id="node17" class="node">
<title>2681</title>
<polygon fill="#e51616" stroke="black" points="32.15,-217.7 0,-217.7 0,-186.6 32.15,-186.6 32.15,-217.7"/>
<text xml:space="preserve" text-anchor="middle" x="16.08" y="-197.1" font-family="Times New Roman,serif" font-size="14.00">2681</text>
</g>
<!-- 2357 -->
<g id="node18" class="node">
<title>2357</title>
<polygon fill="#e51616" stroke="black" points="32.15,-186.6 0,-186.6 0,-155.5 32.15,-155.5 32.15,-186.6"/>
<text xml:space="preserve" text-anchor="middle" x="16.08" y="-166" font-family="Times New Roman,serif" font-size="14.00">2357</text>
</g>
<!-- 2249 -->
<g id="node19" class="node">
<title>2249</title>
<polygon fill="#e51616" stroke="black" points="32.15,-155.5 0,-155.5 0,-124.4 32.15,-124.4 32.15,-155.5"/>
<text xml:space="preserve" text-anchor="middle" x="16.08" y="-134.9" font-family="Times New Roman,serif" font-size="14.00">2249</text>
</g>
<!-- 2213 -->
<g id="node20" class="node">
<title>2213</title>
<polygon fill="#e51616" stroke="black" points="32.15,-124.4 0,-124.4 0,-93.3 32.15,-93.3 32.15,-124.4"/>
<text xml:space="preserve" text-anchor="middle" x="16.08" y="-103.8" font-family="Times New Roman,serif" font-size="14.00">2213</text>
</g>
<!-- 13859 -->
<g id="node21" class="node">
<title>13859</title>
<polygon fill="#e51616" stroke="black" points="32.15,-93.3 0,-93.3 0,-62.2 32.15,-62.2 32.15,-93.3"/>
<text xml:space="preserve" text-anchor="middle" x="16.08" y="-72.7" font-family="Times New Roman,serif" font-size="14.00">13859</text>
</g>
<!-- 5111 -->
<g id="node22" class="node">
<title>5111</title>
<polygon fill="#e51616" stroke="black" points="32.15,-62.2 0,-62.2 0,-31.1 32.15,-31.1 32.15,-62.2"/>
<text xml:space="preserve" text-anchor="middle" x="16.08" y="-41.6" font-family="Times New Roman,serif" font-size="14.00">5111</text>
</g>
<!-- 1223 -->
<g id="node23" class="node">
<title>1223</title>
<polygon fill="#e51616" stroke="black" points="32.15,-31.1 0,-31.1 0,0 32.15,0 32.15,-31.1"/>
<text xml:space="preserve" text-anchor="middle" x="16.08" y="-10.5" font-family="Times New Roman,serif" font-size="14.00">1223</text>
</g>
<!-- 899 -->
<g id="node24" class="node">
<title>899</title>
<polygon fill="#e51616" stroke="black" points="63.25,-342.09 32.15,-342.09 32.15,-309.93 63.25,-309.93 63.25,-342.09"/>
<text xml:space="preserve" text-anchor="middle" x="47.7" y="-320.96" font-family="Times New Roman,serif" font-size="14.00">899</text>
</g>
<!-- 791 -->
<g id="node25" class="node">
<title>791</title>
<polygon fill="#e51616" stroke="black" points="94.34,-342.09 63.25,-342.09 63.25,-309.93 94.34,-309.93 94.34,-342.09"/>
<text xml:space="preserve" text-anchor="middle" x="78.79" y="-320.96" font-family="Times New Roman,serif" font-size="14.00">791</text>
</g>
<!-- 755 -->
<g id="node26" class="node">
<title>755</title>
<polygon fill="#e51616" stroke="black" points="125.43,-342.09 94.34,-342.09 94.34,-309.93 125.43,-309.93 125.43,-342.09"/>
<text xml:space="preserve" text-anchor="middle" x="109.88" y="-320.96" font-family="Times New Roman,serif" font-size="14.00">755</text>
</g>
<!-- 13373 -->
<g id="node27" class="node">
<title>13373</title>
<polygon fill="#e51616" stroke="black" points="156.52,-342.09 125.43,-342.09 125.43,-309.93 156.52,-309.93 156.52,-342.09"/>
<text xml:space="preserve" text-anchor="middle" x="140.98" y="-320.96" font-family="Times New Roman,serif" font-size="14.00">13373</text>
</g>
<!-- 4625 -->
<g id="node28" class="node">
<title>4625</title>
<polygon fill="#e51616" stroke="black" points="187.61,-342.09 156.52,-342.09 156.52,-309.93 187.61,-309.93 187.61,-342.09"/>
<text xml:space="preserve" text-anchor="middle" x="172.07" y="-320.96" font-family="Times New Roman,serif" font-size="14.00">4625</text>
</g>
<!-- 1709 -->
<g id="node29" class="node">
<title>1709</title>
<polygon fill="#e51616" stroke="black" points="218.71,-342.09 187.61,-342.09 187.61,-309.93 218.71,-309.93 218.71,-342.09"/>
<text xml:space="preserve" text-anchor="middle" x="203.16" y="-320.96" font-family="Times New Roman,serif" font-size="14.00">1709</text>
</g>
<!-- 413 -->
<g id="node30" class="node">
<title>413</title>
<polygon fill="#e51616" stroke="black" points="249.8,-342.09 218.71,-342.09 218.71,-309.93 249.8,-309.93 249.8,-342.09"/>
<text xml:space="preserve" text-anchor="middle" x="234.25" y="-320.96" font-family="Times New Roman,serif" font-size="14.00">413</text>
</g>
<!-- 305 -->
<g id="node31" class="node">
<title>305</title>
<polygon fill="#e51616" stroke="black" points="280.89,-342.09 249.8,-342.09 249.8,-309.93 280.89,-309.93 280.89,-342.09"/>
<text xml:space="preserve" text-anchor="middle" x="265.34" y="-320.96" font-family="Times New Roman,serif" font-size="14.00">305</text>
</g>
<!-- 269 -->
<g id="node32" class="node">
<title>269</title>
<polygon fill="#e51616" stroke="black" points="311.98,-342.09 280.89,-342.09 280.89,-309.93 311.98,-309.93 311.98,-342.09"/>
<text xml:space="preserve" text-anchor="middle" x="296.44" y="-320.96" font-family="Times New Roman,serif" font-size="14.00">269</text>
</g>
<!-- 13211 -->
<g id="node33" class="node">
<title>13211</title>
<polygon fill="#e51616" stroke="black" points="343.07,-342.09 311.98,-342.09 311.98,-309.93 343.07,-309.93 343.07,-342.09"/>
<text xml:space="preserve" text-anchor="middle" x="327.53" y="-320.96" font-family="Times New Roman,serif" font-size="14.00">13211</text>
</g>
<!-- 4463 -->
<g id="node34" class="node">
<title>4463</title>
<polygon fill="#e51616" stroke="black" points="374.17,-342.09 343.07,-342.09 343.07,-309.93 374.17,-309.93 374.17,-342.09"/>
<text xml:space="preserve" text-anchor="middle" x="358.62" y="-320.96" font-family="Times New Roman,serif" font-size="14.00">4463</text>
</g>
<!-- 1547 -->
<g id="node35" class="node">
<title>1547</title>
<polygon fill="#e51616" stroke="black" points="64.42,-309.93 32.15,-309.93 32.15,-278.94 64.42,-278.94 64.42,-309.93"/>
<text xml:space="preserve" text-anchor="middle" x="48.29" y="-289.39" font-family="Times New Roman,serif" font-size="14.00">1547</text>
</g>
<!-- 575 -->
<g id="node36" class="node">
<title>575</title>
<polygon fill="#e51616" stroke="black" points="64.42,-278.94 32.15,-278.94 32.15,-247.95 64.42,-247.95 64.42,-278.94"/>
<text xml:space="preserve" text-anchor="middle" x="48.29" y="-258.39" font-family="Times New Roman,serif" font-size="14.00">575</text>
</g>
<!-- 143 -->
<g id="node37" class="node">
<title>143</title>
<polygon fill="#e51616" stroke="black" points="64.42,-247.95 32.15,-247.95 32.15,-216.95 64.42,-216.95 64.42,-247.95"/>
<text xml:space="preserve" text-anchor="middle" x="48.29" y="-227.4" font-family="Times New Roman,serif" font-size="14.00">143</text>
</g>
<!-- 107 -->
<g id="node38" class="node">
<title>107</title>
<polygon fill="#e51616" stroke="black" points="64.42,-216.95 32.15,-216.95 32.15,-185.96 64.42,-185.96 64.42,-216.95"/>
<text xml:space="preserve" text-anchor="middle" x="48.29" y="-196.41" font-family="Times New Roman,serif" font-size="14.00">107</text>
</g>
<!-- 13157 -->
<g id="node39" class="node">
<title>13157</title>
<polygon fill="#e51616" stroke="black" points="64.42,-185.96 32.15,-185.96 32.15,-154.97 64.42,-154.97 64.42,-185.96"/>
<text xml:space="preserve" text-anchor="middle" x="48.29" y="-165.41" font-family="Times New Roman,serif" font-size="14.00">13157</text>
</g>
<!-- 4409 -->
<g id="node40" class="node">
<title>4409</title>
<polygon fill="#e51616" stroke="black" points="64.42,-154.97 32.15,-154.97 32.15,-123.97 64.42,-123.97 64.42,-154.97"/>
<text xml:space="preserve" text-anchor="middle" x="48.29" y="-134.42" font-family="Times New Roman,serif" font-size="14.00">4409</text>
</g>
<!-- 1493 -->
<g id="node41" class="node">
<title>1493</title>
<polygon fill="#e51616" stroke="black" points="64.42,-123.97 32.15,-123.97 32.15,-92.98 64.42,-92.98 64.42,-123.97"/>
<text xml:space="preserve" text-anchor="middle" x="48.29" y="-103.43" font-family="Times New Roman,serif" font-size="14.00">1493</text>
</g>
<!-- 521 -->
<g id="node42" class="node">
<title>521</title>
<polygon fill="#e51616" stroke="black" points="64.42,-92.98 32.15,-92.98 32.15,-61.99 64.42,-61.99 64.42,-92.98"/>
<text xml:space="preserve" text-anchor="middle" x="48.29" y="-72.43" font-family="Times New Roman,serif" font-size="14.00">521</text>
</g>
<!-- 197 -->
<g id="node43" class="node">
<title>197</title>
<polygon fill="#e51616" stroke="black" points="64.42,-61.99 32.15,-61.99 32.15,-30.99 64.42,-30.99 64.42,-61.99"/>
<text xml:space="preserve" text-anchor="middle" x="48.29" y="-41.44" font-family="Times New Roman,serif" font-size="14.00">197</text>
</g>
<!-- 53 -->
<g id="node44" class="node">
<title>53</title>
<polygon fill="#e51616" stroke="black" points="64.42,-30.99 32.15,-30.99 32.15,0 64.42,0 64.42,-30.99"/>
<text xml:space="preserve" text-anchor="middle" x="48.29" y="-10.45" font-family="Times New Roman,serif" font-size="14.00">53</text>
</g>
<!-- 13139 -->
<g id="node45" class="node">
<title>13139</title>
<polygon fill="#e51616" stroke="black" points="95.39,-309.93 64.42,-309.93 64.42,-277.65 95.39,-277.65 95.39,-309.93"/>
<text xml:space="preserve" text-anchor="middle" x="79.91" y="-288.74" font-family="Times New Roman,serif" font-size="14.00">13139</text>
</g>
<!-- 4391 -->
<g id="node46" class="node">
<title>4391</title>
<polygon fill="#e51616" stroke="black" points="126.37,-309.93 95.39,-309.93 95.39,-277.65 126.37,-277.65 126.37,-309.93"/>
<text xml:space="preserve" text-anchor="middle" x="110.88" y="-288.74" font-family="Times New Roman,serif" font-size="14.00">4391</text>
</g>
<!-- 1475 -->
<g id="node47" class="node">
<title>1475</title>
<polygon fill="#e51616" stroke="black" points="157.34,-309.93 126.37,-309.93 126.37,-277.65 157.34,-277.65 157.34,-309.93"/>
<text xml:space="preserve" text-anchor="middle" x="141.86" y="-288.74" font-family="Times New Roman,serif" font-size="14.00">1475</text>
</g>
<!-- 503 -->
<g id="node48" class="node">
<title>503</title>
<polygon fill="#e51616" stroke="black" points="188.32,-309.93 157.34,-309.93 157.34,-277.65 188.32,-277.65 188.32,-309.93"/>
<text xml:space="preserve" text-anchor="middle" x="172.83" y="-288.74" font-family="Times New Roman,serif" font-size="14.00">503</text>
</g>
<!-- 179 -->
<g id="node49" class="node">
<title>179</title>
<polygon fill="#e51616" stroke="black" points="219.29,-309.93 188.32,-309.93 188.32,-277.65 219.29,-277.65 219.29,-309.93"/>
<text xml:space="preserve" text-anchor="middle" x="203.81" y="-288.74" font-family="Times New Roman,serif" font-size="14.00">179</text>
</g>
<!-- 71 -->
<g id="node50" class="node">
<title>71</title>
<polygon fill="#e51616" stroke="black" points="250.27,-309.93 219.29,-309.93 219.29,-277.65 250.27,-277.65 250.27,-309.93"/>
<text xml:space="preserve" text-anchor="middle" x="234.78" y="-288.74" font-family="Times New Roman,serif" font-size="14.00">71</text>
</g>
<!-- 11672 -->
<g id="node51" class="node">
<title>11672</title>
<polygon fill="#16e5e5" stroke="black" points="281.24,-309.93 250.27,-309.93 250.27,-277.65 281.24,-277.65 281.24,-309.93"/>
<text xml:space="preserve" text-anchor="middle" x="265.75" y="-288.74" font-family="Times New Roman,serif" font-size="14.00">11672</text>
</g>
<!-- 11186 -->
<g id="node52" class="node">
<title>11186</title>
<polygon fill="#16e5e5" stroke="black" points="312.22,-309.93 281.24,-309.93 281.24,-277.65 312.22,-277.65 312.22,-309.93"/>
<text xml:space="preserve" text-anchor="middle" x="296.73" y="-288.74" font-family="Times New Roman,serif" font-size="14.00">11186</text>
</g>
<!-- 11024 -->
<g id="node53" class="node">
<title>11024</title>
<polygon fill="#16e5e5" stroke="black" points="343.19,-309.93 312.22,-309.93 312.22,-277.65 343.19,-277.65 343.19,-309.93"/>
<text xml:space="preserve" text-anchor="middle" x="327.7" y="-288.74" font-family="Times New Roman,serif" font-size="14.00">11024</text>
</g>
<!-- 10970 -->
<g id="node54" class="node">
<title>10970</title>
<polygon fill="#16e5e5" stroke="black" points="374.17,-309.93 343.19,-309.93 343.19,-277.65 374.17,-277.65 374.17,-309.93"/>
<text xml:space="preserve" text-anchor="middle" x="358.68" y="-288.74" font-family="Times New Roman,serif" font-size="14.00">10970</text>
</g>
<!-- 10952 -->
<g id="node55" class="node">
<title>10952</title>
<polygon fill="#16e5e5" stroke="black" points="96.84,-277.65 64.42,-277.65 64.42,-246.8 96.84,-246.8 96.84,-277.65"/>
<text xml:space="preserve" text-anchor="middle" x="80.63" y="-257.17" font-family="Times New Roman,serif" font-size="14.00">10952</text>
</g>
<!-- 10214 -->
<g id="node56" class="node">
<title>10214</title>
<polygon fill="#16e5e5" stroke="black" points="96.84,-246.8 64.42,-246.8 64.42,-215.95 96.84,-215.95 96.84,-246.8"/>
<text xml:space="preserve" text-anchor="middle" x="80.63" y="-226.32" font-family="Times New Roman,serif" font-size="14.00">10214</text>
</g>
<!-- 8270 -->
<g id="node57" class="node">
<title>8270</title>
<polygon fill="#16e5e5" stroke="black" points="96.84,-215.95 64.42,-215.95 64.42,-185.1 96.84,-185.1 96.84,-215.95"/>
<text xml:space="preserve" text-anchor="middle" x="80.63" y="-195.47" font-family="Times New Roman,serif" font-size="14.00">8270</text>
</g>
<!-- 8108 -->
<g id="node58" class="node">
<title>8108</title>
<polygon fill="#16e5e5" stroke="black" points="96.84,-185.1 64.42,-185.1 64.42,-154.25 96.84,-154.25 96.84,-185.1"/>
<text xml:space="preserve" text-anchor="middle" x="80.63" y="-164.62" font-family="Times New Roman,serif" font-size="14.00">8108</text>
</g>
<!-- 8054 -->
<g id="node59" class="node">
<title>8054</title>
<polygon fill="#16e5e5" stroke="black" points="96.84,-154.25 64.42,-154.25 64.42,-123.4 96.84,-123.4 96.84,-154.25"/>
<text xml:space="preserve" text-anchor="middle" x="80.63" y="-133.77" font-family="Times New Roman,serif" font-size="14.00">8054</text>
</g>
<!-- 8036 -->
<g id="node60" class="node">
<title>8036</title>
<polygon fill="#16e5e5" stroke="black" points="96.84,-123.4 64.42,-123.4 64.42,-92.55 96.84,-92.55 96.84,-123.4"/>
<text xml:space="preserve" text-anchor="middle" x="80.63" y="-102.92" font-family="Times New Roman,serif" font-size="14.00">8036</text>
</g>
<!-- 9242 -->
<g id="node61" class="node">
<title>9242</title>
<polygon fill="#16e5e5" stroke="black" points="96.84,-92.55 64.42,-92.55 64.42,-61.7 96.84,-61.7 96.84,-92.55"/>
<text xml:space="preserve" text-anchor="middle" x="80.63" y="-72.07" font-family="Times New Roman,serif" font-size="14.00">9242</text>
</g>
<!-- 7784 -->
<g id="node62" class="node">
<title>7784</title>
<polygon fill="#16e5e5" stroke="black" points="96.84,-61.7 64.42,-61.7 64.42,-30.85 96.84,-30.85 96.84,-61.7"/>
<text xml:space="preserve" text-anchor="middle" x="80.63" y="-41.22" font-family="Times New Roman,serif" font-size="14.00">7784</text>
</g>
<!-- 7136 -->
<g id="node63" class="node">
<title>7136</title>
<polygon fill="#16e5e5" stroke="black" points="96.84,-30.85 64.42,-30.85 64.42,0 96.84,0 96.84,-30.85"/>
<text xml:space="preserve" text-anchor="middle" x="80.63" y="-10.37" font-family="Times New Roman,serif" font-size="14.00">7136</text>
</g>
<!-- 7082 -->
<g id="node64" class="node">
<title>7082</title>
<polygon fill="#16e5e5" stroke="black" points="127.65,-277.65 96.84,-277.65 96.84,-245.19 127.65,-245.19 127.65,-277.65"/>
<text xml:space="preserve" text-anchor="middle" x="112.24" y="-256.37" font-family="Times New Roman,serif" font-size="14.00">7082</text>
</g>
<!-- 7064 -->
<g id="node65" class="node">
<title>7064</title>
<polygon fill="#16e5e5" stroke="black" points="158.46,-277.65 127.65,-277.65 127.65,-245.19 158.46,-245.19 158.46,-277.65"/>
<text xml:space="preserve" text-anchor="middle" x="143.06" y="-256.37" font-family="Times New Roman,serif" font-size="14.00">7064</text>
</g>
<!-- 8918 -->
<g id="node66" class="node">
<title>8918</title>
<polygon fill="#16e5e5" stroke="black" points="189.28,-277.65 158.46,-277.65 158.46,-245.19 189.28,-245.19 189.28,-277.65"/>
<text xml:space="preserve" text-anchor="middle" x="173.87" y="-256.37" font-family="Times New Roman,serif" font-size="14.00">8918</text>
</g>
<!-- 7460 -->
<g id="node67" class="node">
<title>7460</title>
<polygon fill="#16e5e5" stroke="black" points="220.09,-277.65 189.28,-277.65 189.28,-245.19 220.09,-245.19 220.09,-277.65"/>
<text xml:space="preserve" text-anchor="middle" x="204.69" y="-256.37" font-family="Times New Roman,serif" font-size="14.00">7460</text>
</g>
<!-- 6974 -->
<g id="node68" class="node">
<title>6974</title>
<polygon fill="#16e5e5" stroke="black" points="250.91,-277.65 220.09,-277.65 220.09,-245.19 250.91,-245.19 250.91,-277.65"/>
<text xml:space="preserve" text-anchor="middle" x="235.5" y="-256.37" font-family="Times New Roman,serif" font-size="14.00">6974</text>
</g>
<!-- 6758 -->
<g id="node69" class="node">
<title>6758</title>
<polygon fill="#16e5e5" stroke="black" points="281.72,-277.65 250.91,-277.65 250.91,-245.19 281.72,-245.19 281.72,-277.65"/>
<text xml:space="preserve" text-anchor="middle" x="266.32" y="-256.37" font-family="Times New Roman,serif" font-size="14.00">6758</text>
</g>
<!-- 6740 -->
<g id="node70" class="node">
<title>6740</title>
<polygon fill="#16e5e5" stroke="black" points="312.54,-277.65 281.72,-277.65 281.72,-245.19 312.54,-245.19 312.54,-277.65"/>
<text xml:space="preserve" text-anchor="middle" x="297.13" y="-256.37" font-family="Times New Roman,serif" font-size="14.00">6740</text>
</g>
<!-- 8810 -->
<g id="node71" class="node">
<title>8810</title>
<polygon fill="#16e5e5" stroke="black" points="343.35,-277.65 312.54,-277.65 312.54,-245.19 343.35,-245.19 343.35,-277.65"/>
<text xml:space="preserve" text-anchor="middle" x="327.94" y="-256.37" font-family="Times New Roman,serif" font-size="14.00">8810</text>
</g>
<!-- 7352 -->
<g id="node72" class="node">
<title>7352</title>
<polygon fill="#16e5e5" stroke="black" points="374.17,-277.65 343.35,-277.65 343.35,-245.19 374.17,-245.19 374.17,-277.65"/>
<text xml:space="preserve" text-anchor="middle" x="358.76" y="-256.37" font-family="Times New Roman,serif" font-size="14.00">7352</text>
</g>
<!-- 6866 -->
<g id="node73" class="node">
<title>6866</title>
<polygon fill="#16e5e5" stroke="black" points="129.46,-245.19 96.84,-245.19 96.84,-214.55 129.46,-214.55 129.46,-245.19"/>
<text xml:space="preserve" text-anchor="middle" x="113.15" y="-224.82" font-family="Times New Roman,serif" font-size="14.00">6866</text>
</g>
<!-- 6704 -->
<g id="node74" class="node">
<title>6704</title>
<polygon fill="#16e5e5" stroke="black" points="129.46,-214.55 96.84,-214.55 96.84,-183.9 129.46,-183.9 129.46,-214.55"/>
<text xml:space="preserve" text-anchor="middle" x="113.15" y="-194.17" font-family="Times New Roman,serif" font-size="14.00">6704</text>
</g>
<!-- 6632 -->
<g id="node75" class="node">
<title>6632</title>
<polygon fill="#16e5e5" stroke="black" points="129.46,-183.9 96.84,-183.9 96.84,-153.25 129.46,-153.25 129.46,-183.9"/>
<text xml:space="preserve" text-anchor="middle" x="113.15" y="-163.52" font-family="Times New Roman,serif" font-size="14.00">6632</text>
</g>
<!-- 16046 -->
<g id="node76" class="node">
<title>16046</title>
<polygon fill="#16e5e5" stroke="black" points="129.46,-153.25 96.84,-153.25 96.84,-122.6 129.46,-122.6 129.46,-153.25"/>
<text xml:space="preserve" text-anchor="middle" x="113.15" y="-132.87" font-family="Times New Roman,serif" font-size="14.00">16046</text>
</g>
<!-- 15560 -->
<g id="node77" class="node">
<title>15560</title>
<polygon fill="#16e5e5" stroke="black" points="129.46,-122.6 96.84,-122.6 96.84,-91.95 129.46,-91.95 129.46,-122.6"/>
<text xml:space="preserve" text-anchor="middle" x="113.15" y="-102.22" font-family="Times New Roman,serif" font-size="14.00">15560</text>
</g>
<!-- 15398 -->
<g id="node78" class="node">
<title>15398</title>
<polygon fill="#16e5e5" stroke="black" points="129.46,-91.95 96.84,-91.95 96.84,-61.3 129.46,-61.3 129.46,-91.95"/>
<text xml:space="preserve" text-anchor="middle" x="113.15" y="-71.57" font-family="Times New Roman,serif" font-size="14.00">15398</text>
</g>
<!-- 15344 -->
<g id="node79" class="node">
<title>15344</title>
<polygon fill="#16e5e5" stroke="black" points="129.46,-61.3 96.84,-61.3 96.84,-30.65 129.46,-30.65 129.46,-61.3"/>
<text xml:space="preserve" text-anchor="middle" x="113.15" y="-40.92" font-family="Times New Roman,serif" font-size="14.00">15344</text>
</g>
<!-- 15326 -->
<g id="node80" class="node">
<title>15326</title>
<polygon fill="#16e5e5" stroke="black" points="129.46,-30.65 96.84,-30.65 96.84,0 129.46,0 129.46,-30.65"/>
<text xml:space="preserve" text-anchor="middle" x="113.15" y="-10.27" font-family="Times New Roman,serif" font-size="14.00">15326</text>
</g>
<!-- 3896 -->
<g id="node81" class="node">
<title>3896</title>
<polygon fill="#16e5e5" stroke="black" points="160.05,-245.19 129.46,-245.19 129.46,-212.5 160.05,-212.5 160.05,-245.19"/>
<text xml:space="preserve" text-anchor="middle" x="144.76" y="-223.8" font-family="Times New Roman,serif" font-size="14.00">3896</text>
</g>
<!-- 3734 -->
<g id="node82" class="node">
<title>3734</title>
<polygon fill="#16e5e5" stroke="black" points="190.64,-245.19 160.05,-245.19 160.05,-212.5 190.64,-212.5 190.64,-245.19"/>
<text xml:space="preserve" text-anchor="middle" x="175.34" y="-223.8" font-family="Times New Roman,serif" font-size="14.00">3734</text>
</g>
<!-- 3680 -->
<g id="node83" class="node">
<title>3680</title>
<polygon fill="#16e5e5" stroke="black" points="221.23,-245.19 190.64,-245.19 190.64,-212.5 221.23,-212.5 221.23,-245.19"/>
<text xml:space="preserve" text-anchor="middle" x="205.93" y="-223.8" font-family="Times New Roman,serif" font-size="14.00">3680</text>
</g>
<!-- 3662 -->
<g id="node84" class="node">
<title>3662</title>
<polygon fill="#16e5e5" stroke="black" points="251.81,-245.19 221.23,-245.19 221.23,-212.5 251.81,-212.5 251.81,-245.19"/>
<text xml:space="preserve" text-anchor="middle" x="236.52" y="-223.8" font-family="Times New Roman,serif" font-size="14.00">3662</text>
</g>
<!-- 3410 -->
<g id="node85" class="node">
<title>3410</title>
<polygon fill="#16e5e5" stroke="black" points="282.4,-245.19 251.81,-245.19 251.81,-212.5 282.4,-212.5 282.4,-245.19"/>
<text xml:space="preserve" text-anchor="middle" x="267.11" y="-223.8" font-family="Times New Roman,serif" font-size="14.00">3410</text>
</g>
<!-- 2762 -->
<g id="node86" class="node">
<title>2762</title>
<polygon fill="#16e5e5" stroke="black" points="312.99,-245.19 282.4,-245.19 282.4,-212.5 312.99,-212.5 312.99,-245.19"/>
<text xml:space="preserve" text-anchor="middle" x="297.7" y="-223.8" font-family="Times New Roman,serif" font-size="14.00">2762</text>
</g>
<!-- 2708 -->
<g id="node87" class="node">
<title>2708</title>
<polygon fill="#16e5e5" stroke="black" points="343.58,-245.19 312.99,-245.19 312.99,-212.5 343.58,-212.5 343.58,-245.19"/>
<text xml:space="preserve" text-anchor="middle" x="328.28" y="-223.8" font-family="Times New Roman,serif" font-size="14.00">2708</text>
</g>
<!-- 2690 -->
<g id="node88" class="node">
<title>2690</title>
<polygon fill="#16e5e5" stroke="black" points="374.17,-245.19 343.58,-245.19 343.58,-212.5 374.17,-212.5 374.17,-245.19"/>
<text xml:space="preserve" text-anchor="middle" x="358.87" y="-223.8" font-family="Times New Roman,serif" font-size="14.00">2690</text>
</g>
<!-- 3086 -->
<g id="node89" class="node">
<title>3086</title>
<polygon fill="#16e5e5" stroke="black" points="162.4,-212.5 129.46,-212.5 129.46,-182.14 162.4,-182.14 162.4,-212.5"/>
<text xml:space="preserve" text-anchor="middle" x="145.93" y="-192.27" font-family="Times New Roman,serif" font-size="14.00">3086</text>
</g>
<!-- 2600 -->
<g id="node90" class="node">
<title>2600</title>
<polygon fill="#16e5e5" stroke="black" points="162.4,-182.14 129.46,-182.14 129.46,-151.79 162.4,-151.79 162.4,-182.14"/>
<text xml:space="preserve" text-anchor="middle" x="145.93" y="-161.92" font-family="Times New Roman,serif" font-size="14.00">2600</text>
</g>
<!-- 2384 -->
<g id="node91" class="node">
<title>2384</title>
<polygon fill="#16e5e5" stroke="black" points="162.4,-151.79 129.46,-151.79 129.46,-121.43 162.4,-121.43 162.4,-151.79"/>
<text xml:space="preserve" text-anchor="middle" x="145.93" y="-131.56" font-family="Times New Roman,serif" font-size="14.00">2384</text>
</g>
<!-- 2366 -->
<g id="node92" class="node">
<title>2366</title>
<polygon fill="#16e5e5" stroke="black" points="162.4,-121.43 129.46,-121.43 129.46,-91.07 162.4,-91.07 162.4,-121.43"/>
<text xml:space="preserve" text-anchor="middle" x="145.93" y="-101.2" font-family="Times New Roman,serif" font-size="14.00">2366</text>
</g>
<!-- 2978 -->
<g id="node93" class="node">
<title>2978</title>
<polygon fill="#16e5e5" stroke="black" points="162.4,-91.07 129.46,-91.07 129.46,-60.71 162.4,-60.71 162.4,-91.07"/>
<text xml:space="preserve" text-anchor="middle" x="145.93" y="-70.84" font-family="Times New Roman,serif" font-size="14.00">2978</text>
</g>
<!-- 2492 -->
<g id="node94" class="node">
<title>2492</title>
<polygon fill="#16e5e5" stroke="black" points="162.4,-60.71 129.46,-60.71 129.46,-30.36 162.4,-30.36 162.4,-60.71"/>
<text xml:space="preserve" text-anchor="middle" x="145.93" y="-40.49" font-family="Times New Roman,serif" font-size="14.00">2492</text>
</g>
<!-- 2330 -->
<g id="node95" class="node">
<title>2330</title>
<polygon fill="#16e5e5" stroke="black" points="162.4,-30.36 129.46,-30.36 129.46,0 162.4,0 162.4,-30.36"/>
<text xml:space="preserve" text-anchor="middle" x="145.93" y="-10.13" font-family="Times New Roman,serif" font-size="14.00">2330</text>
</g>
<!-- 2258 -->
<g id="node96" class="node">
<title>2258</title>
<polygon fill="#16e5e5" stroke="black" points="192.66,-212.5 162.4,-212.5 162.4,-179.45 192.66,-179.45 192.66,-212.5"/>
<text xml:space="preserve" text-anchor="middle" x="177.53" y="-190.92" font-family="Times New Roman,serif" font-size="14.00">2258</text>
</g>
<!-- 14102 -->
<g id="node97" class="node">
<title>14102</title>
<polygon fill="#16e5e5" stroke="black" points="222.91,-212.5 192.66,-212.5 192.66,-179.45 222.91,-179.45 222.91,-212.5"/>
<text xml:space="preserve" text-anchor="middle" x="207.78" y="-190.92" font-family="Times New Roman,serif" font-size="14.00">14102</text>
</g>
<!-- 13940 -->
<g id="node98" class="node">
<title>13940</title>
<polygon fill="#16e5e5" stroke="black" points="253.16,-212.5 222.91,-212.5 222.91,-179.45 253.16,-179.45 253.16,-212.5"/>
<text xml:space="preserve" text-anchor="middle" x="238.03" y="-190.92" font-family="Times New Roman,serif" font-size="14.00">13940</text>
</g>
<!-- 13886 -->
<g id="node99" class="node">
<title>13886</title>
<polygon fill="#16e5e5" stroke="black" points="283.41,-212.5 253.16,-212.5 253.16,-179.45 283.41,-179.45 283.41,-212.5"/>
<text xml:space="preserve" text-anchor="middle" x="268.28" y="-190.92" font-family="Times New Roman,serif" font-size="14.00">13886</text>
</g>
<!-- 13868 -->
<g id="node100" class="node">
<title>13868</title>
<polygon fill="#16e5e5" stroke="black" points="313.66,-212.5 283.41,-212.5 283.41,-179.45 313.66,-179.45 313.66,-212.5"/>
<text xml:space="preserve" text-anchor="middle" x="298.54" y="-190.92" font-family="Times New Roman,serif" font-size="14.00">13868</text>
</g>
<!-- 5354 -->
<g id="node101" class="node">
<title>5354</title>
<polygon fill="#16e5e5" stroke="black" points="343.91,-212.5 313.66,-212.5 313.66,-179.45 343.91,-179.45 343.91,-212.5"/>
<text xml:space="preserve" text-anchor="middle" x="328.79" y="-190.92" font-family="Times New Roman,serif" font-size="14.00">5354</text>
</g>
<!-- 5192 -->
<g id="node102" class="node">
<title>5192</title>
<polygon fill="#16e5e5" stroke="black" points="374.17,-212.5 343.91,-212.5 343.91,-179.45 374.17,-179.45 374.17,-212.5"/>
<text xml:space="preserve" text-anchor="middle" x="359.04" y="-190.92" font-family="Times New Roman,serif" font-size="14.00">5192</text>
</g>
<!-- 5138 -->
<g id="node103" class="node">
<title>5138</title>
<polygon fill="#16e5e5" stroke="black" points="195.84,-179.45 162.4,-179.45 162.4,-149.54 195.84,-149.54 195.84,-179.45"/>
<text xml:space="preserve" text-anchor="middle" x="179.12" y="-159.44" font-family="Times New Roman,serif" font-size="14.00">5138</text>
</g>
<!-- 5120 -->
<g id="node104" class="node">
<title>5120</title>
<polygon fill="#16e5e5" stroke="black" points="195.84,-149.54 162.4,-149.54 162.4,-119.63 195.84,-119.63 195.84,-149.54"/>
<text xml:space="preserve" text-anchor="middle" x="179.12" y="-129.53" font-family="Times New Roman,serif" font-size="14.00">5120</text>
</g>
<!-- 1304 -->
<g id="node105" class="node">
<title>1304</title>
<polygon fill="#16e5e5" stroke="black" points="195.84,-119.63 162.4,-119.63 162.4,-89.72 195.84,-89.72 195.84,-119.63"/>
<text xml:space="preserve" text-anchor="middle" x="179.12" y="-99.63" font-family="Times New Roman,serif" font-size="14.00">1304</text>
</g>
<!-- 1250 -->
<g id="node106" class="node">
<title>1250</title>
<polygon fill="#16e5e5" stroke="black" points="195.84,-89.72 162.4,-89.72 162.4,-59.82 195.84,-59.82 195.84,-89.72"/>
<text xml:space="preserve" text-anchor="middle" x="179.12" y="-69.72" font-family="Times New Roman,serif" font-size="14.00">1250</text>
</g>
<!-- 1232 -->
<g id="node107" class="node">
<title>1232</title>
<polygon fill="#16e5e5" stroke="black" points="195.84,-59.82 162.4,-59.82 162.4,-29.91 195.84,-29.91 195.84,-59.82"/>
<text xml:space="preserve" text-anchor="middle" x="179.12" y="-39.81" font-family="Times New Roman,serif" font-size="14.00">1232</text>
</g>
<!-- 1142 -->
<g id="node108" class="node">
<title>1142</title>
<polygon fill="#16e5e5" stroke="black" points="195.84,-29.91 162.4,-29.91 162.4,0 195.84,0 195.84,-29.91"/>
<text xml:space="preserve" text-anchor="middle" x="179.12" y="-9.9" font-family="Times New Roman,serif" font-size="14.00">1142</text>
</g>
<!-- 926 -->
<g id="node109" class="node">
<title>926</title>
<polygon fill="#16e5e5" stroke="black" points="225.56,-179.45 195.84,-179.45 195.84,-145.8 225.56,-145.8 225.56,-179.45"/>
<text xml:space="preserve" text-anchor="middle" x="210.7" y="-157.57" font-family="Times New Roman,serif" font-size="14.00">926</text>
</g>
<!-- 908 -->
<g id="node110" class="node">
<title>908</title>
<polygon fill="#16e5e5" stroke="black" points="255.28,-179.45 225.56,-179.45 225.56,-145.8 255.28,-145.8 255.28,-179.45"/>
<text xml:space="preserve" text-anchor="middle" x="240.42" y="-157.57" font-family="Times New Roman,serif" font-size="14.00">908</text>
</g>
<!-- 1034 -->
<g id="node111" class="node">
<title>1034</title>
<polygon fill="#16e5e5" stroke="black" points="285,-179.45 255.28,-179.45 255.28,-145.8 285,-145.8 285,-179.45"/>
<text xml:space="preserve" text-anchor="middle" x="270.14" y="-157.57" font-family="Times New Roman,serif" font-size="14.00">1034</text>
</g>
<!-- 872 -->
<g id="node112" class="node">
<title>872</title>
<polygon fill="#16e5e5" stroke="black" points="314.72,-179.45 285,-179.45 285,-145.8 314.72,-145.8 314.72,-179.45"/>
<text xml:space="preserve" text-anchor="middle" x="299.86" y="-157.57" font-family="Times New Roman,serif" font-size="14.00">872</text>
</g>
<!-- 800 -->
<g id="node113" class="node">
<title>800</title>
<polygon fill="#16e5e5" stroke="black" points="344.44,-179.45 314.72,-179.45 314.72,-145.8 344.44,-145.8 344.44,-179.45"/>
<text xml:space="preserve" text-anchor="middle" x="329.58" y="-157.57" font-family="Times New Roman,serif" font-size="14.00">800</text>
</g>
<!-- 13454 -->
<g id="node114" class="node">
<title>13454</title>
<polygon fill="#16e5e5" stroke="black" points="374.17,-179.45 344.44,-179.45 344.44,-145.8 374.17,-145.8 374.17,-179.45"/>
<text xml:space="preserve" text-anchor="middle" x="359.31" y="-157.57" font-family="Times New Roman,serif" font-size="14.00">13454</text>
</g>
<!-- 13400 -->
<g id="node115" class="node">
<title>13400</title>
<polygon fill="#16e5e5" stroke="black" points="230.13,-145.8 195.84,-145.8 195.84,-116.64 230.13,-116.64 230.13,-145.8"/>
<text xml:space="preserve" text-anchor="middle" x="212.99" y="-126.17" font-family="Times New Roman,serif" font-size="14.00">13400</text>
</g>
<!-- 13382 -->
<g id="node116" class="node">
<title>13382</title>
<polygon fill="#16e5e5" stroke="black" points="230.13,-116.64 195.84,-116.64 195.84,-87.48 230.13,-87.48 230.13,-116.64"/>
<text xml:space="preserve" text-anchor="middle" x="212.99" y="-97.01" font-family="Times New Roman,serif" font-size="14.00">13382</text>
</g>
<!-- 4706 -->
<g id="node117" class="node">
<title>4706</title>
<polygon fill="#16e5e5" stroke="black" points="230.13,-87.48 195.84,-87.48 195.84,-58.32 230.13,-58.32 230.13,-87.48"/>
<text xml:space="preserve" text-anchor="middle" x="212.99" y="-67.85" font-family="Times New Roman,serif" font-size="14.00">4706</text>
</g>
<!-- 4652 -->
<g id="node118" class="node">
<title>4652</title>
<polygon fill="#16e5e5" stroke="black" points="230.13,-58.32 195.84,-58.32 195.84,-29.16 230.13,-29.16 230.13,-58.32"/>
<text xml:space="preserve" text-anchor="middle" x="212.99" y="-38.69" font-family="Times New Roman,serif" font-size="14.00">4652</text>
</g>
<!-- 4634 -->
<g id="node119" class="node">
<title>4634</title>
<polygon fill="#16e5e5" stroke="black" points="230.13,-29.16 195.84,-29.16 195.84,0 230.13,0 230.13,-29.16"/>
<text xml:space="preserve" text-anchor="middle" x="212.99" y="-9.53" font-family="Times New Roman,serif" font-size="14.00">4634</text>
</g>
<!-- 1790 -->
<g id="node120" class="node">
<title>1790</title>
<polygon fill="#16e5e5" stroke="black" points="258.94,-145.8 230.13,-145.8 230.13,-111.09 258.94,-111.09 258.94,-145.8"/>
<text xml:space="preserve" text-anchor="middle" x="244.54" y="-123.39" font-family="Times New Roman,serif" font-size="14.00">1790</text>
</g>
<!-- 1736 -->
<g id="node121" class="node">
<title>1736</title>
<polygon fill="#16e5e5" stroke="black" points="287.75,-145.8 258.94,-145.8 258.94,-111.09 287.75,-111.09 287.75,-145.8"/>
<text xml:space="preserve" text-anchor="middle" x="273.34" y="-123.39" font-family="Times New Roman,serif" font-size="14.00">1736</text>
</g>
<!-- 1718 -->
<g id="node122" class="node">
<title>1718</title>
<polygon fill="#16e5e5" stroke="black" points="316.55,-145.8 287.75,-145.8 287.75,-111.09 316.55,-111.09 316.55,-145.8"/>
<text xml:space="preserve" text-anchor="middle" x="302.15" y="-123.39" font-family="Times New Roman,serif" font-size="14.00">1718</text>
</g>
<!-- 440 -->
<g id="node123" class="node">
<title>440</title>
<polygon fill="#16e5e5" stroke="black" points="345.36,-145.8 316.55,-145.8 316.55,-111.09 345.36,-111.09 345.36,-145.8"/>
<text xml:space="preserve" text-anchor="middle" x="330.96" y="-123.39" font-family="Times New Roman,serif" font-size="14.00">440</text>
</g>
<!-- 422 -->
<g id="node124" class="node">
<title>422</title>
<polygon fill="#16e5e5" stroke="black" points="374.17,-145.8 345.36,-145.8 345.36,-111.09 374.17,-111.09 374.17,-145.8"/>
<text xml:space="preserve" text-anchor="middle" x="359.76" y="-123.39" font-family="Times New Roman,serif" font-size="14.00">422</text>
</g>
<!-- 386 -->
<g id="node125" class="node">
<title>386</title>
<polygon fill="#16e5e5" stroke="black" points="266.14,-111.09 230.13,-111.09 230.13,-83.31 266.14,-83.31 266.14,-111.09"/>
<text xml:space="preserve" text-anchor="middle" x="248.14" y="-92.15" font-family="Times New Roman,serif" font-size="14.00">386</text>
</g>
<!-- 314 -->
<g id="node126" class="node">
<title>314</title>
<polygon fill="#16e5e5" stroke="black" points="266.14,-83.31 230.13,-83.31 230.13,-55.54 266.14,-55.54 266.14,-83.31"/>
<text xml:space="preserve" text-anchor="middle" x="248.14" y="-64.38" font-family="Times New Roman,serif" font-size="14.00">314</text>
</g>
<!-- 13238 -->
<g id="node127" class="node">
<title>13238</title>
<polygon fill="#16e5e5" stroke="black" points="266.14,-55.54 230.13,-55.54 230.13,-27.77 266.14,-27.77 266.14,-55.54"/>
<text xml:space="preserve" text-anchor="middle" x="248.14" y="-36.61" font-family="Times New Roman,serif" font-size="14.00">13238</text>
</g>
<!-- 13220 -->
<g id="node128" class="node">
<title>13220</title>
<polygon fill="#16e5e5" stroke="black" points="266.14,-27.77 230.13,-27.77 230.13,0 266.14,0 266.14,-27.77"/>
<text xml:space="preserve" text-anchor="middle" x="248.14" y="-8.84" font-family="Times New Roman,serif" font-size="14.00">13220</text>
</g>
<!-- 4490 -->
<g id="node129" class="node">
<title>4490</title>
<polygon fill="#16e5e5" stroke="black" points="302.15,-111.09 266.14,-111.09 266.14,-83.31 302.15,-83.31 302.15,-111.09"/>
<text xml:space="preserve" text-anchor="middle" x="284.15" y="-92.15" font-family="Times New Roman,serif" font-size="14.00">4490</text>
</g>
<!-- 4472 -->
<g id="node130" class="node">
<title>4472</title>
<polygon fill="#16e5e5" stroke="black" points="338.16,-111.09 302.15,-111.09 302.15,-83.31 338.16,-83.31 338.16,-111.09"/>
<text xml:space="preserve" text-anchor="middle" x="320.15" y="-92.15" font-family="Times New Roman,serif" font-size="14.00">4472</text>
</g>
<!-- 1574 -->
<g id="node131" class="node">
<title>1574</title>
<polygon fill="#16e5e5" stroke="black" points="374.17,-111.09 338.16,-111.09 338.16,-83.31 374.17,-83.31 374.17,-111.09"/>
<text xml:space="preserve" text-anchor="middle" x="356.16" y="-92.15" font-family="Times New Roman,serif" font-size="14.00">1574</text>
</g>
<!-- 1556 -->
<g id="node132" class="node">
<title>1556</title>
<polygon fill="#16e5e5" stroke="black" points="302.15,-83.31 266.14,-83.31 266.14,-55.54 302.15,-55.54 302.15,-83.31"/>
<text xml:space="preserve" text-anchor="middle" x="284.15" y="-64.38" font-family="Times New Roman,serif" font-size="14.00">1556</text>
</g>
<!-- 602 -->
<g id="node133" class="node">
<title>602</title>
<polygon fill="#16e5e5" stroke="black" points="302.15,-55.54 266.14,-55.54 266.14,-27.77 302.15,-27.77 302.15,-55.54"/>
<text xml:space="preserve" text-anchor="middle" x="284.15" y="-36.61" font-family="Times New Roman,serif" font-size="14.00">602</text>
</g>
<!-- 584 -->
<g id="node134" class="node">
<title>584</title>
<polygon fill="#16e5e5" stroke="black" points="302.15,-27.77 266.14,-27.77 266.14,0 302.15,0 302.15,-27.77"/>
<text xml:space="preserve" text-anchor="middle" x="284.15" y="-8.84" font-family="Times New Roman,serif" font-size="14.00">584</text>
</g>
<!-- 152 -->
<g id="node135" class="node">
<title>152</title>
<polygon fill="#16e5e5" stroke="black" points="338.16,-83.31 302.15,-83.31 302.15,-55.54 338.16,-55.54 338.16,-83.31"/>
<text xml:space="preserve" text-anchor="middle" x="320.15" y="-64.38" font-family="Times New Roman,serif" font-size="14.00">152</text>
</g>
<!-- 13166 -->
<g id="node136" class="node">
<title>13166</title>
<polygon fill="#16e5e5" stroke="black" points="374.17,-83.31 338.16,-83.31 338.16,-55.54 374.17,-55.54 374.17,-83.31"/>
<text xml:space="preserve" text-anchor="middle" x="356.16" y="-64.38" font-family="Times New Roman,serif" font-size="14.00">13166</text>
</g>
<!-- 4418 -->
<g id="node137" class="node">
<title>4418</title>
<polygon fill="#16e5e5" stroke="black" points="338.16,-55.54 302.15,-55.54 302.15,-27.77 338.16,-27.77 338.16,-55.54"/>
<text xml:space="preserve" text-anchor="middle" x="320.15" y="-36.61" font-family="Times New Roman,serif" font-size="14.00">4418</text>
</g>
<!-- 1502 -->
<g id="node138" class="node">
<title>1502</title>
<polygon fill="#16e5e5" stroke="black" points="338.16,-27.77 302.15,-27.77 302.15,0 338.16,0 338.16,-27.77"/>
<text xml:space="preserve" text-anchor="middle" x="320.15" y="-8.84" font-family="Times New Roman,serif" font-size="14.00">1502</text>
</g>
<!-- 530 -->
<g id="node139" class="node">
<title>530</title>
<polygon fill="#16e5e5" stroke="black" points="374.17,-55.54 338.16,-55.54 338.16,-27.77 374.17,-27.77 374.17,-55.54"/>
<text xml:space="preserve" text-anchor="middle" x="356.16" y="-36.61" font-family="Times New Roman,serif" font-size="14.00">530</text>
</g>
<!-- 206 -->
<g id="node140" class="node">
<title>206</title>
<polygon fill="#16e5e5" stroke="black" points="374.17,-27.77 338.16,-27.77 338.16,0 374.17,0 374.17,-27.77"/>
<text xml:space="preserve" text-anchor="middle" x="356.16" y="-8.84" font-family="Times New Roman,serif" font-size="14.00">206</text>
</g>
</g>
</svg>
