<?xml version="1.0" encoding="UTF-8" standalone="no"?>
<!DOCTYPE svg PUBLIC "-//W3C//DTD SVG 1.1//EN"
 "http://www.w3.org/Graphics/SVG/1.1/DTD/svg11.dtd">
<!-- Generated by graphviz version 15.0.0 (20260523.1842)
 -->
<!-- Title: graph166_3x3_d2 Pages: 1 -->
<svg width="487pt" height="460pt"
 viewBox="0.00 0.00 487.00 460.00" xmlns="http://www.w3.org/2000/svg" xmlns:xlink="http://www.w3.org/1999/xlink">
<g id="graph0" class="graph" transform="scale(1 1) rotate(0) translate(4 455.78)">
<title>graph166_3x3_d2</title>
<polygon fill="white" stroke="none" points="-4,4 -4,-455.78 483.5,-455.78 483.5,4 -4,4"/>
<!-- 1624 -->
<g id="node1" class="node">
<title>1624</title>
<ellipse fill="#16e5e5" stroke="black" cx="234.28" cy="-241.48" rx="24.84" ry="24.84"/>
<text xml:space="preserve" text-anchor="middle" x="234.28" y="-236.43" font-family="Times New Roman,serif" font-size="14.00">1624</text>
</g>
<!-- 8185 -->
<g id="node2" class="node">
<title>8185</title>
<polygon fill="#e51616" stroke="black" points="28.89,-138.93 30.51,-139.03 32.11,-139.18 33.69,-139.37 35.24,-139.62 36.76,-139.91 38.23,-140.25 39.66,-140.63 41.03,-141.06 42.34,-141.53 43.59,-142.04 44.78,-142.6 45.89,-143.19 46.93,-143.82 47.89,-144.49 48.77,-145.19 49.56,-145.92 50.28,-146.68 50.9,-147.47 51.45,-148.29 51.9,-149.13 52.27,-149.99 52.55,-150.87 52.75,-151.77 52.86,-152.68 52.89,-153.6 52.84,-154.53 52.71,-155.47 52.51,-156.41 52.23,-157.35 51.89,-158.29 51.47,-159.23 51,-160.16 50.46,-161.08 49.87,-162 49.23,-162.89 48.54,-163.77 47.8,-164.63 47.02,-165.47 46.21,-166.29 45.36,-167.08 44.47,-167.84 43.56,-168.58 42.62,-169.28 41.66,-169.94 40.68,-170.57 39.69,-171.17 38.67,-171.72 37.65,-172.23 36.61,-172.71 35.56,-173.13 34.5,-173.52 33.44,-173.85 32.37,-174.15 31.3,-174.39 30.23,-174.59 29.15,-174.73 28.07,-174.83 26.98,-174.88 25.9,-174.88 24.82,-174.83 23.74,-174.73 22.66,-174.59 21.59,-174.39 20.51,-174.15 19.45,-173.85 18.38,-173.52 17.33,-173.13 16.28,-172.71 15.24,-172.23 14.22,-171.72 13.2,-171.17 12.2,-170.57 11.22,-169.94 10.26,-169.28 9.33,-168.58 8.42,-167.84 7.53,-167.08 6.68,-166.29 5.86,-165.47 5.08,-164.63 4.35,-163.77 3.66,-162.89 3.01,-162 2.42,-161.08 1.89,-160.16 1.41,-159.23 1,-158.29 0.66,-157.35 0.38,-156.41 0.18,-155.47 0.05,-154.53 0,-153.6 0.03,-152.68 0.14,-151.77 0.34,-150.87 0.62,-149.99 0.99,-149.13 1.44,-148.29 1.98,-147.47 2.61,-146.68 3.32,-145.92 4.12,-145.19 5,-144.49 5.96,-143.82 7,-143.19 8.11,-142.6 9.29,-142.04 10.55,-141.53 11.86,-141.06 13.23,-140.63 14.66,-140.25 16.13,-139.91 17.64,-139.62 19.19,-139.37 20.77,-139.18 22.38,-139.03 24,-138.93 25.63,-138.88 27.26,-138.88 28.89,-138.93"/>
<text xml:space="preserve" text-anchor="middle" x="26.44" y="-151.83" font-family="Times New Roman,serif" font-size="14.00">8185</text>
</g>
<!-- 1624&#45;&gt;8185 -->
<g id="edge1" class="edge">
<title>1624&#45;&gt;8185</title>
<path fill="none" stroke="black" d="M210.84,-231.94C173.42,-216.71 100.12,-186.87 58.08,-169.76"/>
<polygon fill="black" stroke="black" points="59.6,-166.6 49.01,-166.07 56.96,-173.08 59.6,-166.6"/>
</g>
<!-- 3811 -->
<g id="node3" class="node">
<title>3811</title>
<polygon fill="#e51616" stroke="black" points="255.28,-0.05 256.9,-0.15 258.5,-0.3 260.08,-0.49 261.63,-0.74 263.15,-1.03 264.62,-1.36 266.04,-1.75 267.41,-2.18 268.73,-2.65 269.98,-3.16 271.16,-3.71 272.28,-4.31 273.31,-4.94 274.27,-5.61 275.15,-6.31 275.95,-7.04 276.66,-7.8 277.29,-8.59 277.83,-9.41 278.29,-10.25 278.65,-11.11 278.93,-11.99 279.13,-12.89 279.24,-13.8 279.27,-14.72 279.22,-15.65 279.1,-16.59 278.89,-17.53 278.62,-18.47 278.27,-19.41 277.86,-20.35 277.38,-21.28 276.85,-22.2 276.26,-23.11 275.62,-24.01 274.93,-24.89 274.19,-25.75 273.41,-26.59 272.59,-27.41 271.74,-28.2 270.86,-28.96 269.95,-29.69 269.01,-30.39 268.05,-31.06 267.07,-31.69 266.07,-32.29 265.06,-32.84 264.03,-33.35 262.99,-33.82 261.95,-34.25 260.89,-34.64 259.83,-34.97 258.76,-35.26 257.69,-35.51 256.61,-35.7 255.53,-35.85 254.45,-35.95 253.37,-36 252.29,-36 251.21,-35.95 250.13,-35.85 249.05,-35.7 247.97,-35.51 246.9,-35.26 245.83,-34.97 244.77,-34.64 243.71,-34.25 242.67,-33.82 241.63,-33.35 240.6,-32.84 239.59,-32.29 238.59,-31.69 237.61,-31.06 236.65,-30.39 235.71,-29.69 234.8,-28.96 233.92,-28.2 233.07,-27.41 232.25,-26.59 231.47,-25.75 230.73,-24.89 230.04,-24.01 229.4,-23.11 228.81,-22.2 228.27,-21.28 227.8,-20.35 227.39,-19.41 227.04,-18.47 226.77,-17.53 226.56,-16.59 226.44,-15.65 226.39,-14.72 226.42,-13.8 226.53,-12.89 226.72,-11.99 227.01,-11.11 227.37,-10.25 227.83,-9.41 228.37,-8.59 229,-7.8 229.71,-7.04 230.51,-6.31 231.39,-5.61 232.35,-4.94 233.38,-4.31 234.5,-3.71 235.68,-3.16 236.93,-2.65 238.24,-2.18 239.62,-1.75 241.04,-1.36 242.51,-1.03 244.03,-0.74 245.58,-0.49 247.16,-0.3 248.76,-0.15 250.38,-0.05 252.01,0 253.65,0 255.28,-0.05"/>
<text xml:space="preserve" text-anchor="middle" x="252.83" y="-12.95" font-family="Times New Roman,serif" font-size="14.00">3811</text>
</g>
<!-- 1624&#45;&gt;3811 -->
<g id="edge2" class="edge">
<title>1624&#45;&gt;3811</title>
<path fill="none" stroke="black" d="M236.37,-216.28C239.82,-174.75 246.68,-92.13 250.36,-47.78"/>
<polygon fill="black" stroke="black" points="253.84,-48.12 251.18,-37.86 246.87,-47.54 253.84,-48.12"/>
</g>
<!-- 1867 -->
<g id="node4" class="node">
<title>1867</title>
<polygon fill="#e51616" stroke="black" points="352.78,-415.83 354.4,-415.93 356.01,-416.08 357.59,-416.27 359.14,-416.52 360.65,-416.81 362.12,-417.15 363.55,-417.53 364.92,-417.96 366.23,-418.43 367.48,-418.94 368.67,-419.5 369.78,-420.09 370.82,-420.72 371.78,-421.39 372.66,-422.09 373.46,-422.82 374.17,-423.58 374.8,-424.38 375.34,-425.19 375.79,-426.03 376.16,-426.89 376.44,-427.77 376.64,-428.67 376.75,-429.58 376.78,-430.5 376.73,-431.43 376.6,-432.37 376.4,-433.31 376.12,-434.25 375.78,-435.2 375.36,-436.13 374.89,-437.06 374.36,-437.99 373.77,-438.9 373.12,-439.79 372.43,-440.67 371.69,-441.54 370.92,-442.38 370.1,-443.19 369.25,-443.98 368.36,-444.74 367.45,-445.48 366.51,-446.18 365.55,-446.84 364.57,-447.48 363.58,-448.07 362.56,-448.62 361.54,-449.14 360.5,-449.61 359.45,-450.04 358.4,-450.42 357.33,-450.76 356.27,-451.05 355.19,-451.29 354.12,-451.49 353.04,-451.64 351.96,-451.73 350.88,-451.78 349.79,-451.78 348.71,-451.73 347.63,-451.64 346.55,-451.49 345.48,-451.29 344.4,-451.05 343.34,-450.76 342.27,-450.42 341.22,-450.04 340.17,-449.61 339.13,-449.14 338.11,-448.62 337.09,-448.07 336.1,-447.48 335.12,-446.84 334.16,-446.18 333.22,-445.48 332.31,-444.74 331.42,-443.98 330.57,-443.19 329.75,-442.38 328.98,-441.54 328.24,-440.67 327.55,-439.79 326.9,-438.9 326.31,-437.99 325.78,-437.06 325.31,-436.13 324.89,-435.2 324.55,-434.25 324.27,-433.31 324.07,-432.37 323.94,-431.43 323.89,-430.5 323.92,-429.58 324.03,-428.67 324.23,-427.77 324.51,-426.89 324.88,-426.03 325.33,-425.19 325.87,-424.38 326.5,-423.58 327.21,-422.82 328.01,-422.09 328.89,-421.39 329.85,-420.72 330.89,-420.09 332,-419.5 333.19,-418.94 334.44,-418.43 335.75,-417.96 337.12,-417.53 338.55,-417.15 340.02,-416.81 341.53,-416.52 343.08,-416.27 344.66,-416.08 346.27,-415.93 347.89,-415.83 349.52,-415.78 351.15,-415.78 352.78,-415.83"/>
<text xml:space="preserve" text-anchor="middle" x="350.34" y="-428.73" font-family="Times New Roman,serif" font-size="14.00">1867</text>
</g>
<!-- 1624&#45;&gt;1867 -->
<g id="edge3" class="edge">
<title>1624&#45;&gt;1867</title>
<path fill="none" stroke="black" d="M247.36,-263.17C268.7,-298.51 310.91,-368.45 334.11,-406.9"/>
<polygon fill="black" stroke="black" points="330.9,-408.36 339.06,-415.11 336.89,-404.74 330.9,-408.36"/>
</g>
<!-- 1651 -->
<g id="node5" class="node">
<title>1651</title>
<polygon fill="#e51616" stroke="black" points="455.5,-173.73 457.12,-173.83 458.73,-173.98 460.31,-174.17 461.86,-174.42 463.37,-174.71 464.84,-175.05 466.27,-175.43 467.64,-175.86 468.95,-176.33 470.2,-176.84 471.39,-177.4 472.5,-177.99 473.54,-178.62 474.5,-179.29 475.38,-179.99 476.18,-180.72 476.89,-181.48 477.52,-182.27 478.06,-183.09 478.51,-183.93 478.88,-184.79 479.16,-185.67 479.36,-186.57 479.47,-187.48 479.5,-188.4 479.45,-189.33 479.32,-190.27 479.12,-191.21 478.84,-192.15 478.5,-193.1 478.08,-194.03 477.61,-194.96 477.08,-195.89 476.49,-196.8 475.84,-197.69 475.15,-198.57 474.41,-199.43 473.64,-200.27 472.82,-201.09 471.97,-201.88 471.08,-202.64 470.17,-203.38 469.23,-204.08 468.27,-204.74 467.29,-205.38 466.3,-205.97 465.28,-206.52 464.26,-207.04 463.22,-207.51 462.17,-207.94 461.12,-208.32 460.05,-208.66 458.98,-208.95 457.91,-209.19 456.84,-209.39 455.76,-209.54 454.68,-209.63 453.6,-209.68 452.51,-209.68 451.43,-209.63 450.35,-209.54 449.27,-209.39 448.2,-209.19 447.12,-208.95 446.06,-208.66 444.99,-208.32 443.94,-207.94 442.89,-207.51 441.85,-207.04 440.83,-206.52 439.81,-205.97 438.82,-205.38 437.84,-204.74 436.88,-204.08 435.94,-203.38 435.03,-202.64 434.14,-201.88 433.29,-201.09 432.47,-200.27 431.7,-199.43 430.96,-198.57 430.27,-197.69 429.62,-196.8 429.03,-195.89 428.5,-194.96 428.03,-194.03 427.61,-193.1 427.27,-192.15 426.99,-191.21 426.79,-190.27 426.66,-189.33 426.61,-188.4 426.64,-187.48 426.75,-186.57 426.95,-185.67 427.23,-184.79 427.6,-183.93 428.05,-183.09 428.59,-182.27 429.22,-181.48 429.93,-180.72 430.73,-179.99 431.61,-179.29 432.57,-178.62 433.61,-177.99 434.72,-177.4 435.91,-176.84 437.16,-176.33 438.47,-175.86 439.84,-175.43 441.27,-175.05 442.74,-174.71 444.25,-174.42 445.8,-174.17 447.38,-173.98 448.99,-173.83 450.61,-173.73 452.24,-173.68 453.87,-173.68 455.5,-173.73"/>
<text xml:space="preserve" text-anchor="middle" x="453.05" y="-186.63" font-family="Times New Roman,serif" font-size="14.00">1651</text>
</g>
<!-- 1624&#45;&gt;1651 -->
<g id="edge4" class="edge">
<title>1624&#45;&gt;1651</title>
<path fill="none" stroke="black" d="M258.95,-235.87C297.93,-226.99 373.89,-209.7 418.35,-199.58"/>
<polygon fill="black" stroke="black" points="419.02,-203.02 427.99,-197.39 417.47,-196.19 419.02,-203.02"/>
</g>
<!-- 1633 -->
<g id="node6" class="node">
<title>1633</title>
<polygon fill="#e51616" stroke="black" points="113.86,-430.78 64.18,-430.78 64.18,-394.78 113.86,-394.78 113.86,-430.78"/>
<text xml:space="preserve" text-anchor="middle" x="89.02" y="-407.73" font-family="Times New Roman,serif" font-size="14.00">1633</text>
</g>
<!-- 1624&#45;&gt;1633 -->
<g id="edge5" class="edge">
<title>1624&#45;&gt;1633</title>
<path fill="none" stroke="black" d="M217.9,-260.8C192.01,-291.32 141.58,-350.8 112.06,-385.61"/>
<polygon fill="black" stroke="black" points="109.45,-383.27 105.66,-393.16 114.79,-387.8 109.45,-383.27"/>
</g>
</g>
</svg>
