<?xml version="1.0" encoding="UTF-8" standalone="no"?>
<!DOCTYPE svg PUBLIC "-//W3C//DTD SVG 1.1//EN"
 "http://www.w3.org/Graphics/SVG/1.1/DTD/svg11.dtd">
<!-- Generated by graphviz version 15.0.0 (20260523.1842)
 -->
<!-- Title: manual0_3x3_d1 Pages: 1 -->
<svg width="499pt" height="482pt"
 viewBox="0.00 0.00 499.00 482.00" xmlns="http://www.w3.org/2000/svg" xmlns:xlink="http://www.w3.org/1999/xlink">
<g id="graph0" class="graph" transform="scale(1 1) rotate(0) translate(4 477.72)">
<title>manual0_3x3_d1</title>
<polygon fill="white" stroke="none" points="-4,4 -4,-477.72 495.04,-477.72 495.04,4 -4,4"/>
<!-- 0 -->
<g id="node1" class="node">
<title>0</title>
<ellipse fill="#16e5e5" stroke="black" cx="242.53" cy="-239.93" rx="24.84" ry="24.84"/>
<text xml:space="preserve" text-anchor="middle" x="242.53" y="-234.88" font-family="Times New Roman,serif" font-size="14.00">0</text>
</g>
<!-- 6561 -->
<g id="node2" class="node">
<title>6561</title>
<polygon fill="#e51616" stroke="black" points="43.82,-313.13 45.44,-313.23 47.04,-313.38 48.62,-313.57 50.17,-313.82 51.69,-314.11 53.16,-314.44 54.58,-314.83 55.96,-315.26 57.27,-315.73 58.52,-316.24 59.7,-316.8 60.82,-317.39 61.85,-318.02 62.81,-318.69 63.69,-319.39 64.49,-320.12 65.2,-320.88 65.83,-321.67 66.37,-322.49 66.83,-323.33 67.19,-324.19 67.48,-325.07 67.67,-325.97 67.78,-326.88 67.81,-327.8 67.76,-328.73 67.64,-329.67 67.43,-330.61 67.16,-331.55 66.81,-332.49 66.4,-333.43 65.93,-334.36 65.39,-335.28 64.8,-336.19 64.16,-337.09 63.47,-337.97 62.73,-338.83 61.95,-339.67 61.13,-340.49 60.28,-341.28 59.4,-342.04 58.49,-342.77 57.55,-343.48 56.59,-344.14 55.61,-344.77 54.61,-345.37 53.6,-345.92 52.57,-346.43 51.53,-346.9 50.49,-347.33 49.43,-347.72 48.37,-348.05 47.3,-348.35 46.23,-348.59 45.15,-348.79 44.07,-348.93 42.99,-349.03 41.91,-349.08 40.83,-349.08 39.75,-349.03 38.67,-348.93 37.59,-348.79 36.51,-348.59 35.44,-348.35 34.37,-348.05 33.31,-347.72 32.25,-347.33 31.21,-346.9 30.17,-346.43 29.14,-345.92 28.13,-345.37 27.13,-344.77 26.15,-344.14 25.19,-343.48 24.25,-342.77 23.34,-342.04 22.46,-341.28 21.61,-340.49 20.79,-339.67 20.01,-338.83 19.27,-337.97 18.58,-337.09 17.94,-336.19 17.35,-335.28 16.82,-334.36 16.34,-333.43 15.93,-332.49 15.58,-331.55 15.31,-330.61 15.1,-329.67 14.98,-328.73 14.93,-327.8 14.96,-326.88 15.07,-325.97 15.27,-325.07 15.55,-324.19 15.91,-323.33 16.37,-322.49 16.91,-321.67 17.54,-320.88 18.25,-320.12 19.05,-319.39 19.93,-318.69 20.89,-318.02 21.92,-317.39 23.04,-316.8 24.22,-316.24 25.47,-315.73 26.79,-315.26 28.16,-314.83 29.58,-314.44 31.05,-314.11 32.57,-313.82 34.12,-313.57 35.7,-313.38 37.3,-313.23 38.92,-313.13 40.55,-313.08 42.19,-313.08 43.82,-313.13"/>
<text xml:space="preserve" text-anchor="middle" x="41.37" y="-326.03" font-family="Times New Roman,serif" font-size="14.00">6561</text>
</g>
<!-- 0&#45;&gt;6561 -->
<g id="edge1" class="edge">
<title>0&#45;&gt;6561</title>
<path fill="none" stroke="black" d="M219.45,-250.38C184.12,-266.4 116.4,-297.08 75.41,-315.65"/>
<polygon fill="black" stroke="black" points="74.15,-312.38 66.49,-319.7 77.04,-318.76 74.15,-312.38"/>
</g>
<!-- 2187 -->
<g id="node3" class="node">
<title>2187</title>
<polygon fill="#e51616" stroke="black" points="403.44,-65.95 405.06,-66.05 406.67,-66.19 408.25,-66.39 409.8,-66.63 411.31,-66.93 412.79,-67.26 414.21,-67.65 415.58,-68.07 416.9,-68.55 418.15,-69.06 419.33,-69.61 420.44,-70.21 421.48,-70.84 422.44,-71.5 423.32,-72.21 424.12,-72.94 424.83,-73.7 425.46,-74.49 426,-75.31 426.45,-76.15 426.82,-77.01 427.1,-77.89 427.3,-78.79 427.41,-79.7 427.44,-80.62 427.39,-81.55 427.26,-82.49 427.06,-83.43 426.78,-84.37 426.44,-85.31 426.03,-86.25 425.55,-87.18 425.02,-88.1 424.43,-89.01 423.79,-89.91 423.09,-90.79 422.36,-91.65 421.58,-92.49 420.76,-93.31 419.91,-94.1 419.03,-94.86 418.11,-95.59 417.18,-96.29 416.22,-96.96 415.24,-97.59 414.24,-98.18 413.23,-98.74 412.2,-99.25 411.16,-99.72 410.11,-100.15 409.06,-100.53 408,-100.87 406.93,-101.16 405.86,-101.41 404.78,-101.6 403.7,-101.75 402.62,-101.85 401.54,-101.9 400.46,-101.9 399.38,-101.85 398.29,-101.75 397.22,-101.6 396.14,-101.41 395.07,-101.16 394,-100.87 392.94,-100.53 391.88,-100.15 390.83,-99.72 389.8,-99.25 388.77,-98.74 387.76,-98.18 386.76,-97.59 385.78,-96.96 384.82,-96.29 383.88,-95.59 382.97,-94.86 382.09,-94.1 381.23,-93.31 380.42,-92.49 379.64,-91.65 378.9,-90.79 378.21,-89.91 377.57,-89.01 376.98,-88.1 376.44,-87.18 375.97,-86.25 375.56,-85.31 375.21,-84.37 374.93,-83.43 374.73,-82.49 374.6,-81.55 374.55,-80.62 374.58,-79.7 374.7,-78.79 374.89,-77.89 375.17,-77.01 375.54,-76.15 376,-75.31 376.54,-74.49 377.16,-73.7 377.88,-72.94 378.67,-72.21 379.55,-71.5 380.51,-70.84 381.55,-70.21 382.66,-69.61 383.85,-69.06 385.1,-68.55 386.41,-68.07 387.78,-67.65 389.21,-67.26 390.68,-66.93 392.2,-66.63 393.75,-66.39 395.33,-66.19 396.93,-66.05 398.55,-65.95 400.18,-65.9 401.81,-65.9 403.44,-65.95"/>
<text xml:space="preserve" text-anchor="middle" x="401" y="-78.85" font-family="Times New Roman,serif" font-size="14.00">2187</text>
</g>
<!-- 0&#45;&gt;2187 -->
<g id="edge2" class="edge">
<title>0&#45;&gt;2187</title>
<path fill="none" stroke="black" d="M260.4,-222.33C289.53,-193.65 347.16,-136.91 378.84,-105.71"/>
<polygon fill="black" stroke="black" points="380.93,-108.57 385.6,-99.06 376.02,-103.58 380.93,-108.57"/>
</g>
<!-- 729 -->
<g id="node4" class="node">
<title>729</title>
<polygon fill="#e51616" stroke="black" points="299.53,-437.77 301.15,-437.87 302.75,-438.02 304.33,-438.22 305.88,-438.46 307.4,-438.75 308.87,-439.09 310.29,-439.47 311.67,-439.9 312.98,-440.37 314.23,-440.88 315.41,-441.44 316.53,-442.03 317.57,-442.66 318.53,-443.33 319.4,-444.03 320.2,-444.76 320.91,-445.53 321.54,-446.32 322.08,-447.13 322.54,-447.97 322.9,-448.83 323.19,-449.71 323.38,-450.61 323.5,-451.52 323.53,-452.44 323.48,-453.37 323.35,-454.31 323.14,-455.25 322.87,-456.2 322.52,-457.14 322.11,-458.07 321.64,-459.01 321.1,-459.93 320.51,-460.84 319.87,-461.73 319.18,-462.61 318.44,-463.48 317.66,-464.32 316.85,-465.13 315.99,-465.92 315.11,-466.69 314.2,-467.42 313.26,-468.12 312.3,-468.79 311.32,-469.42 310.32,-470.01 309.31,-470.56 308.28,-471.08 307.25,-471.55 306.2,-471.98 305.14,-472.36 304.08,-472.7 303.01,-472.99 301.94,-473.23 300.86,-473.43 299.78,-473.58 298.7,-473.67 297.62,-473.72 296.54,-473.72 295.46,-473.67 294.38,-473.58 293.3,-473.43 292.22,-473.23 291.15,-472.99 290.08,-472.7 289.02,-472.36 287.97,-471.98 286.92,-471.55 285.88,-471.08 284.85,-470.56 283.84,-470.01 282.84,-469.42 281.86,-468.79 280.9,-468.12 279.96,-467.42 279.05,-466.69 278.17,-465.92 277.32,-465.13 276.5,-464.32 275.72,-463.48 274.99,-462.61 274.29,-461.73 273.65,-460.84 273.06,-459.93 272.53,-459.01 272.05,-458.07 271.64,-457.14 271.29,-456.2 271.02,-455.25 270.82,-454.31 270.69,-453.37 270.64,-452.44 270.67,-451.52 270.78,-450.61 270.98,-449.71 271.26,-448.83 271.63,-447.97 272.08,-447.13 272.62,-446.32 273.25,-445.53 273.96,-444.76 274.76,-444.03 275.64,-443.33 276.6,-442.66 277.64,-442.03 278.75,-441.44 279.93,-440.88 281.18,-440.37 282.5,-439.9 283.87,-439.47 285.29,-439.09 286.77,-438.75 288.28,-438.46 289.83,-438.22 291.41,-438.02 293.01,-437.87 294.63,-437.77 296.26,-437.72 297.9,-437.72 299.53,-437.77"/>
<text xml:space="preserve" text-anchor="middle" x="297.08" y="-450.67" font-family="Times New Roman,serif" font-size="14.00">729</text>
</g>
<!-- 0&#45;&gt;729 -->
<g id="edge3" class="edge">
<title>0&#45;&gt;729</title>
<path fill="none" stroke="black" d="M248.68,-264.26C258.79,-304.26 278.88,-383.74 289.73,-426.64"/>
<polygon fill="black" stroke="black" points="286.31,-427.4 292.16,-436.24 293.1,-425.69 286.31,-427.4"/>
</g>
<!-- 243 -->
<g id="node5" class="node">
<title>243</title>
<polygon fill="#e51616" stroke="black" points="425.66,-352.06 427.28,-352.16 428.88,-352.3 430.46,-352.5 432.01,-352.74 433.53,-353.04 435,-353.37 436.42,-353.76 437.8,-354.18 439.11,-354.66 440.36,-355.17 441.54,-355.72 442.66,-356.32 443.7,-356.95 444.66,-357.61 445.53,-358.31 446.33,-359.05 447.04,-359.81 447.67,-360.6 448.21,-361.42 448.67,-362.26 449.03,-363.12 449.32,-364 449.51,-364.89 449.63,-365.81 449.66,-366.73 449.61,-367.66 449.48,-368.6 449.27,-369.54 449,-370.48 448.65,-371.42 448.24,-372.36 447.77,-373.29 447.23,-374.21 446.64,-375.12 446,-376.02 445.31,-376.9 444.57,-377.76 443.79,-378.6 442.98,-379.42 442.12,-380.21 441.24,-380.97 440.33,-381.7 439.39,-382.4 438.43,-383.07 437.45,-383.7 436.45,-384.29 435.44,-384.85 434.41,-385.36 433.38,-385.83 432.33,-386.26 431.27,-386.64 430.21,-386.98 429.14,-387.27 428.07,-387.52 426.99,-387.71 425.91,-387.86 424.83,-387.96 423.75,-388.01 422.67,-388.01 421.59,-387.96 420.51,-387.86 419.43,-387.71 418.35,-387.52 417.28,-387.27 416.21,-386.98 415.15,-386.64 414.1,-386.26 413.05,-385.83 412.01,-385.36 410.98,-384.85 409.97,-384.29 408.97,-383.7 407.99,-383.07 407.03,-382.4 406.09,-381.7 405.18,-380.97 404.3,-380.21 403.45,-379.42 402.63,-378.6 401.85,-377.76 401.12,-376.9 400.42,-376.02 399.78,-375.12 399.19,-374.21 398.66,-373.29 398.18,-372.36 397.77,-371.42 397.42,-370.48 397.15,-369.54 396.95,-368.6 396.82,-367.66 396.77,-366.73 396.8,-365.81 396.91,-364.89 397.11,-364 397.39,-363.12 397.76,-362.26 398.21,-361.42 398.75,-360.6 399.38,-359.81 400.09,-359.05 400.89,-358.31 401.77,-357.61 402.73,-356.95 403.77,-356.32 404.88,-355.72 406.06,-355.17 407.31,-354.66 408.63,-354.18 410,-353.76 411.42,-353.37 412.9,-353.04 414.41,-352.74 415.96,-352.5 417.54,-352.3 419.14,-352.16 420.76,-352.06 422.39,-352.01 424.03,-352.01 425.66,-352.06"/>
<text xml:space="preserve" text-anchor="middle" x="423.21" y="-364.96" font-family="Times New Roman,serif" font-size="14.00">243</text>
</g>
<!-- 0&#45;&gt;243 -->
<g id="edge4" class="edge">
<title>0&#45;&gt;243</title>
<path fill="none" stroke="black" d="M262.91,-254.6C295.1,-277.77 357.84,-322.94 394.55,-349.38"/>
<polygon fill="black" stroke="black" points="392.34,-352.1 402.51,-355.1 396.43,-346.42 392.34,-352.1"/>
</g>
<!-- 81 -->
<g id="node6" class="node">
<title>81</title>
<polygon fill="#e51616" stroke="black" points="146.64,-423.33 148.26,-423.43 149.86,-423.57 151.44,-423.77 152.99,-424.01 154.51,-424.3 155.98,-424.64 157.41,-425.03 158.78,-425.45 160.09,-425.93 161.34,-426.44 162.53,-426.99 163.64,-427.59 164.68,-428.22 165.64,-428.88 166.52,-429.58 167.31,-430.32 168.03,-431.08 168.65,-431.87 169.19,-432.69 169.65,-433.53 170.02,-434.39 170.3,-435.27 170.49,-436.16 170.61,-437.07 170.64,-438 170.59,-438.93 170.46,-439.87 170.26,-440.81 169.98,-441.75 169.63,-442.69 169.22,-443.63 168.75,-444.56 168.21,-445.48 167.62,-446.39 166.98,-447.29 166.29,-448.17 165.55,-449.03 164.77,-449.87 163.96,-450.69 163.1,-451.48 162.22,-452.24 161.31,-452.97 160.37,-453.67 159.41,-454.34 158.43,-454.97 157.43,-455.56 156.42,-456.12 155.39,-456.63 154.36,-457.1 153.31,-457.53 152.25,-457.91 151.19,-458.25 150.12,-458.54 149.05,-458.79 147.97,-458.98 146.9,-459.13 145.82,-459.23 144.73,-459.28 143.65,-459.28 142.57,-459.23 141.49,-459.13 140.41,-458.98 139.34,-458.79 138.26,-458.54 137.19,-458.25 136.13,-457.91 135.08,-457.53 134.03,-457.1 132.99,-456.63 131.96,-456.12 130.95,-455.56 129.95,-454.97 128.97,-454.34 128.01,-453.67 127.08,-452.97 126.16,-452.24 125.28,-451.48 124.43,-450.69 123.61,-449.87 122.83,-449.03 122.1,-448.17 121.41,-447.29 120.76,-446.39 120.17,-445.48 119.64,-444.56 119.16,-443.63 118.75,-442.69 118.41,-441.75 118.13,-440.81 117.93,-439.87 117.8,-438.93 117.75,-438 117.78,-437.07 117.89,-436.16 118.09,-435.27 118.37,-434.39 118.74,-433.53 119.19,-432.69 119.73,-431.87 120.36,-431.08 121.07,-430.32 121.87,-429.58 122.75,-428.88 123.71,-428.22 124.75,-427.59 125.86,-426.99 127.04,-426.44 128.29,-425.93 129.61,-425.45 130.98,-425.03 132.4,-424.64 133.88,-424.3 135.39,-424.01 136.94,-423.77 138.52,-423.57 140.13,-423.43 141.75,-423.33 143.38,-423.28 145.01,-423.28 146.64,-423.33"/>
<text xml:space="preserve" text-anchor="middle" x="144.19" y="-436.23" font-family="Times New Roman,serif" font-size="14.00">81</text>
</g>
<!-- 0&#45;&gt;81 -->
<g id="edge5" class="edge">
<title>0&#45;&gt;81</title>
<path fill="none" stroke="black" d="M231.44,-262.63C213.31,-299.75 177.39,-373.31 157.77,-413.49"/>
<polygon fill="black" stroke="black" points="154.71,-411.76 153.47,-422.28 161,-414.83 154.71,-411.76"/>
</g>
<!-- 27 -->
<g id="node7" class="node">
<title>27</title>
<polygon fill="#e51616" stroke="black" points="467.04,-204.82 468.66,-204.92 470.26,-205.07 471.84,-205.27 473.39,-205.51 474.91,-205.8 476.38,-206.14 477.8,-206.52 479.18,-206.95 480.49,-207.42 481.74,-207.94 482.92,-208.49 484.04,-209.08 485.07,-209.71 486.03,-210.38 486.91,-211.08 487.71,-211.81 488.42,-212.58 489.05,-213.37 489.59,-214.18 490.05,-215.02 490.41,-215.88 490.7,-216.76 490.89,-217.66 491,-218.57 491.04,-219.49 490.99,-220.42 490.86,-221.36 490.65,-222.3 490.38,-223.25 490.03,-224.19 489.62,-225.13 489.15,-226.06 488.61,-226.98 488.02,-227.89 487.38,-228.79 486.69,-229.67 485.95,-230.53 485.17,-231.37 484.35,-232.18 483.5,-232.97 482.62,-233.74 481.71,-234.47 480.77,-235.17 479.81,-235.84 478.83,-236.47 477.83,-237.06 476.82,-237.61 475.79,-238.13 474.76,-238.6 473.71,-239.03 472.65,-239.41 471.59,-239.75 470.52,-240.04 469.45,-240.28 468.37,-240.48 467.29,-240.63 466.21,-240.73 465.13,-240.77 464.05,-240.77 462.97,-240.73 461.89,-240.63 460.81,-240.48 459.73,-240.28 458.66,-240.04 457.59,-239.75 456.53,-239.41 455.47,-239.03 454.43,-238.6 453.39,-238.13 452.36,-237.61 451.35,-237.06 450.35,-236.47 449.37,-235.84 448.41,-235.17 447.47,-234.47 446.56,-233.74 445.68,-232.97 444.83,-232.18 444.01,-231.37 443.23,-230.53 442.5,-229.67 441.8,-228.79 441.16,-227.89 440.57,-226.98 440.04,-226.06 439.56,-225.13 439.15,-224.19 438.8,-223.25 438.53,-222.3 438.32,-221.36 438.2,-220.42 438.15,-219.49 438.18,-218.57 438.29,-217.66 438.49,-216.76 438.77,-215.88 439.14,-215.02 439.59,-214.18 440.13,-213.37 440.76,-212.58 441.47,-211.81 442.27,-211.08 443.15,-210.38 444.11,-209.71 445.15,-209.08 446.26,-208.49 447.44,-207.94 448.69,-207.42 450.01,-206.95 451.38,-206.52 452.8,-206.14 454.28,-205.8 455.79,-205.51 457.34,-205.27 458.92,-205.07 460.52,-204.92 462.14,-204.82 463.77,-204.77 465.41,-204.77 467.04,-204.82"/>
<text xml:space="preserve" text-anchor="middle" x="464.59" y="-217.72" font-family="Times New Roman,serif" font-size="14.00">27</text>
</g>
<!-- 0&#45;&gt;27 -->
<g id="edge6" class="edge">
<title>0&#45;&gt;27</title>
<path fill="none" stroke="black" d="M267.57,-237.99C306.62,-234.98 382.22,-229.14 427.57,-225.63"/>
<polygon fill="black" stroke="black" points="427.75,-229.13 437.45,-224.87 427.21,-222.15 427.75,-229.13"/>
</g>
<!-- 9 -->
<g id="node8" class="node">
<title>9</title>
<polygon fill="#e51616" stroke="black" points="265.81,-0.05 267.43,-0.15 269.04,-0.3 270.62,-0.49 272.17,-0.74 273.68,-1.03 275.16,-1.36 276.58,-1.75 277.95,-2.18 279.27,-2.65 280.52,-3.16 281.7,-3.71 282.81,-4.31 283.85,-4.94 284.81,-5.61 285.69,-6.31 286.49,-7.04 287.2,-7.8 287.83,-8.59 288.37,-9.41 288.82,-10.25 289.19,-11.11 289.47,-11.99 289.67,-12.89 289.78,-13.8 289.81,-14.72 289.76,-15.65 289.63,-16.59 289.43,-17.53 289.15,-18.47 288.81,-19.41 288.4,-20.35 287.92,-21.28 287.39,-22.2 286.8,-23.11 286.15,-24.01 285.46,-24.89 284.73,-25.75 283.95,-26.59 283.13,-27.41 282.28,-28.2 281.4,-28.96 280.48,-29.69 279.55,-30.39 278.59,-31.06 277.61,-31.69 276.61,-32.29 275.6,-32.84 274.57,-33.35 273.53,-33.82 272.48,-34.25 271.43,-34.64 270.37,-34.97 269.3,-35.26 268.22,-35.51 267.15,-35.7 266.07,-35.85 264.99,-35.95 263.91,-36 262.83,-36 261.74,-35.95 260.66,-35.85 259.59,-35.7 258.51,-35.51 257.44,-35.26 256.37,-34.97 255.31,-34.64 254.25,-34.25 253.2,-33.82 252.17,-33.35 251.14,-32.84 250.13,-32.29 249.13,-31.69 248.15,-31.06 247.19,-30.39 246.25,-29.69 245.34,-28.96 244.46,-28.2 243.6,-27.41 242.79,-26.59 242.01,-25.75 241.27,-24.89 240.58,-24.01 239.94,-23.11 239.35,-22.2 238.81,-21.28 238.34,-20.35 237.93,-19.41 237.58,-18.47 237.3,-17.53 237.1,-16.59 236.97,-15.65 236.92,-14.72 236.95,-13.8 237.07,-12.89 237.26,-11.99 237.54,-11.11 237.91,-10.25 238.37,-9.41 238.91,-8.59 239.53,-7.8 240.25,-7.04 241.04,-6.31 241.92,-5.61 242.88,-4.94 243.92,-4.31 245.03,-3.71 246.22,-3.16 247.47,-2.65 248.78,-2.18 250.15,-1.75 251.58,-1.36 253.05,-1.03 254.57,-0.74 256.12,-0.49 257.7,-0.3 259.3,-0.15 260.92,-0.05 262.55,0 264.18,0 265.81,-0.05"/>
<text xml:space="preserve" text-anchor="middle" x="263.37" y="-12.95" font-family="Times New Roman,serif" font-size="14.00">9</text>
</g>
<!-- 0&#45;&gt;9 -->
<g id="edge7" class="edge">
<title>0&#45;&gt;9</title>
<path fill="none" stroke="black" d="M244.88,-214.9C248.75,-173.66 256.46,-91.62 260.59,-47.58"/>
<polygon fill="black" stroke="black" points="264.06,-48.02 261.51,-37.73 257.09,-47.36 264.06,-48.02"/>
</g>
<!-- 3 -->
<g id="node9" class="node">
<title>3</title>
<polygon fill="#e51616" stroke="black" points="28.89,-162.73 30.51,-162.83 32.11,-162.98 33.69,-163.18 35.24,-163.42 36.76,-163.71 38.23,-164.05 39.66,-164.43 41.03,-164.86 42.34,-165.33 43.59,-165.85 44.78,-166.4 45.89,-166.99 46.93,-167.62 47.89,-168.29 48.77,-168.99 49.56,-169.72 50.28,-170.49 50.9,-171.28 51.45,-172.09 51.9,-172.93 52.27,-173.79 52.55,-174.67 52.75,-175.57 52.86,-176.48 52.89,-177.4 52.84,-178.33 52.71,-179.27 52.51,-180.21 52.23,-181.16 51.89,-182.1 51.47,-183.04 51,-183.97 50.46,-184.89 49.87,-185.8 49.23,-186.7 48.54,-187.58 47.8,-188.44 47.02,-189.28 46.21,-190.09 45.36,-190.88 44.47,-191.65 43.56,-192.38 42.62,-193.08 41.66,-193.75 40.68,-194.38 39.69,-194.97 38.67,-195.52 37.65,-196.04 36.61,-196.51 35.56,-196.94 34.5,-197.32 33.44,-197.66 32.37,-197.95 31.3,-198.19 30.23,-198.39 29.15,-198.54 28.07,-198.64 26.98,-198.69 25.9,-198.69 24.82,-198.64 23.74,-198.54 22.66,-198.39 21.59,-198.19 20.51,-197.95 19.45,-197.66 18.38,-197.32 17.33,-196.94 16.28,-196.51 15.24,-196.04 14.22,-195.52 13.2,-194.97 12.2,-194.38 11.22,-193.75 10.26,-193.08 9.33,-192.38 8.42,-191.65 7.53,-190.88 6.68,-190.09 5.86,-189.28 5.08,-188.44 4.35,-187.58 3.66,-186.7 3.01,-185.8 2.42,-184.89 1.89,-183.97 1.41,-183.04 1,-182.1 0.66,-181.16 0.38,-180.21 0.18,-179.27 0.05,-178.33 0,-177.4 0.03,-176.48 0.14,-175.57 0.34,-174.67 0.62,-173.79 0.99,-172.93 1.44,-172.09 1.98,-171.28 2.61,-170.49 3.32,-169.72 4.12,-168.99 5,-168.29 5.96,-167.62 7,-166.99 8.11,-166.4 9.29,-165.85 10.55,-165.33 11.86,-164.86 13.23,-164.43 14.66,-164.05 16.13,-163.71 17.64,-163.42 19.19,-163.18 20.77,-162.98 22.38,-162.83 24,-162.73 25.63,-162.69 27.26,-162.69 28.89,-162.73"/>
<text xml:space="preserve" text-anchor="middle" x="26.44" y="-175.64" font-family="Times New Roman,serif" font-size="14.00">3</text>
</g>
<!-- 0&#45;&gt;3 -->
<g id="edge8" class="edge">
<title>0&#45;&gt;3</title>
<path fill="none" stroke="black" d="M218.16,-233.25C179.56,-222.66 104.24,-202.01 60.37,-189.99"/>
<polygon fill="black" stroke="black" points="61.44,-186.65 50.87,-187.38 59.59,-193.4 61.44,-186.65"/>
</g>
<!-- 1 -->
<g id="node10" class="node">
<title>1</title>
<polygon fill="#e51616" stroke="black" points="118.44,-38.84 120.06,-38.94 121.67,-39.08 123.25,-39.28 124.8,-39.52 126.31,-39.82 127.78,-40.15 129.21,-40.54 130.58,-40.97 131.89,-41.44 133.15,-41.95 134.33,-42.5 135.44,-43.1 136.48,-43.73 137.44,-44.39 138.32,-45.1 139.12,-45.83 139.83,-46.59 140.46,-47.38 141,-48.2 141.45,-49.04 141.82,-49.9 142.1,-50.78 142.3,-51.68 142.41,-52.59 142.44,-53.51 142.39,-54.44 142.26,-55.38 142.06,-56.32 141.78,-57.26 141.44,-58.2 141.03,-59.14 140.55,-60.07 140.02,-60.99 139.43,-61.9 138.78,-62.8 138.09,-63.68 137.35,-64.54 136.58,-65.38 135.76,-66.2 134.91,-66.99 134.02,-67.75 133.11,-68.48 132.18,-69.18 131.22,-69.85 130.24,-70.48 129.24,-71.07 128.22,-71.63 127.2,-72.14 126.16,-72.61 125.11,-73.04 124.06,-73.42 122.99,-73.76 121.93,-74.05 120.85,-74.3 119.78,-74.49 118.7,-74.64 117.62,-74.74 116.54,-74.79 115.45,-74.79 114.37,-74.74 113.29,-74.64 112.21,-74.49 111.14,-74.3 110.07,-74.05 109,-73.76 107.94,-73.42 106.88,-73.04 105.83,-72.61 104.79,-72.14 103.77,-71.63 102.75,-71.07 101.76,-70.48 100.78,-69.85 99.82,-69.18 98.88,-68.48 97.97,-67.75 97.08,-66.99 96.23,-66.2 95.42,-65.38 94.64,-64.54 93.9,-63.68 93.21,-62.8 92.57,-61.9 91.98,-60.99 91.44,-60.07 90.97,-59.14 90.55,-58.2 90.21,-57.26 89.93,-56.32 89.73,-55.38 89.6,-54.44 89.55,-53.51 89.58,-52.59 89.69,-51.68 89.89,-50.78 90.17,-49.9 90.54,-49.04 90.99,-48.2 91.54,-47.38 92.16,-46.59 92.88,-45.83 93.67,-45.1 94.55,-44.39 95.51,-43.73 96.55,-43.1 97.66,-42.5 98.85,-41.95 100.1,-41.44 101.41,-40.97 102.78,-40.54 104.21,-40.15 105.68,-39.82 107.19,-39.52 108.75,-39.28 110.33,-39.08 111.93,-38.94 113.55,-38.84 115.18,-38.79 116.81,-38.79 118.44,-38.84"/>
<text xml:space="preserve" text-anchor="middle" x="116" y="-51.74" font-family="Times New Roman,serif" font-size="14.00">1</text>
</g>
<!-- 0&#45;&gt;1 -->
<g id="edge9" class="edge">
<title>0&#45;&gt;1</title>
<path fill="none" stroke="black" d="M228.26,-219.28C204.93,-185.5 158.67,-118.56 133.43,-82.02"/>
<polygon fill="black" stroke="black" points="136.33,-80.06 127.76,-73.82 130.57,-84.04 136.33,-80.06"/>
</g>
</g>
</svg>
